<svg width="70" height="48" viewBox="0 0 70 48" fill="none" xmlns="http://www.w3.org/2000/svg">
<path d="M39.5547 9.20615C37.0131 12.1834 35.2751 16.975 35 22.4698H43.1777C43.4509 18.5554 44.7201 15.8561 45.6351 14.7134C43.5393 11.4287 40.7965 9.83277 39.5547 9.20615Z" fill="url(#paint0_linear_3114_5050)"/>
<path d="M48.0924 22.4698H56.27C55.808 13.2453 51.2246 6 45.6351 6C43.3751 6 41.2799 7.18526 39.5548 9.20601C40.7922 9.83042 43.5378 11.4262 45.6351 14.7134C47.6931 17.9392 48.0263 21.0689 48.0924 22.4698Z" fill="url(#paint1_linear_3114_5050)"/>
<path d="M39.5547 38.794C37.0131 35.8168 35.2751 31.0251 35 25.5304H43.1777C43.4509 29.4448 44.7201 32.144 45.6351 33.2867C43.5393 36.5713 40.7965 38.1674 39.5547 38.794Z" fill="url(#paint2_linear_3114_5050)"/>
<path d="M48.0924 25.5302H56.27C55.808 34.7547 51.2246 42 45.6351 42C43.3751 42 41.2799 40.8148 39.5548 38.794C40.7922 38.1696 43.5378 36.5739 45.6351 33.2866C47.6931 30.0608 48.0263 26.9313 48.0924 25.5302Z" fill="url(#paint3_linear_3114_5050)"/>
<defs>
<linearGradient id="paint0_linear_3114_5050" x1="37.4619" y1="21.5156" x2="43.6123" y2="12.7124" gradientUnits="userSpaceOnUse">
<stop offset="0.1511" stop-color="#146BB5"/>
<stop offset="0.2679" stop-color="#1566AE"/>
<stop offset="0.4349" stop-color="#155CA0"/>
<stop offset="0.6321" stop-color="#144C8B"/>
<stop offset="0.8507" stop-color="#0E356F"/>
<stop offset="1" stop-color="#06235B"/>
</linearGradient>
<linearGradient id="paint1_linear_3114_5050" x1="52.8602" y1="12.7551" x2="43.2594" y2="17.7853" gradientUnits="userSpaceOnUse">
<stop stop-color="#7EC8EF"/>
<stop offset="1" stop-color="#405EAB"/>
</linearGradient>
<linearGradient id="paint2_linear_3114_5050" x1="37.4619" y1="26.4845" x2="43.6123" y2="35.2876" gradientUnits="userSpaceOnUse">
<stop offset="0.1511" stop-color="#8DABD1"/>
<stop offset="0.3091" stop-color="#87A5CD"/>
<stop offset="0.5351" stop-color="#7797C4"/>
<stop offset="0.8007" stop-color="#5F81B6"/>
<stop offset="1" stop-color="#4970AA"/>
</linearGradient>
<linearGradient id="paint3_linear_3114_5050" x1="54.2184" y1="35.9773" x2="44.6176" y2="30.9472" gradientUnits="userSpaceOnUse">
<stop offset="0.0564" stop-color="#CCE6F8"/>
<stop offset="0.796" stop-color="#82A5D4"/>
</linearGradient>
</defs>
</svg>
