<svg width="25" height="25" viewBox="0 0 48 48" fill="none" xmlns="http://www.w3.org/2000/svg">
<path d="M41.9539 22.7795C41.2801 12.8604 32.6942 5.36887 22.7781 6.04266C17.8383 6.37926 13.5004 8.68023 10.4728 12.1272L10.4638 12.1212C10.4422 12.1488 10.4236 12.1764 10.405 12.204C7.39846 15.6726 5.70647 20.2811 6.04247 25.2221C6.07367 25.6937 6.12887 26.1556 6.19667 26.614C6.19667 26.6362 6.20267 26.6542 6.20567 26.6758C6.25187 26.9776 6.30467 27.28 6.36287 27.5758C6.41803 27.8492 6.47965 28.1213 6.54767 28.3918C8.62724 36.6813 16.393 42.5523 25.2213 41.9517C35.1374 41.2773 42.6319 32.692 41.9575 22.7735L41.9539 22.7795ZM38.0359 23.0471C38.1193 24.2675 38.0419 25.4627 37.8235 26.6146C37.8235 26.6086 37.8175 26.6026 37.8175 26.596C36.5108 23.4077 33.9296 21.1037 31.6622 19.8311C32.1212 14.4282 30.2882 12.1488 28.2122 11.7792C27.81 11.7036 27.3965 11.7111 26.9973 11.8011C26.598 11.8912 26.2213 12.0619 25.8904 12.3027C25.5596 12.5436 25.2814 12.8496 25.073 13.2019C24.8647 13.5542 24.7306 13.9454 24.6789 14.3514C24.6283 14.743 24.6555 15.1408 24.7589 15.522C24.8623 15.9031 25.0398 16.2601 25.2814 16.5726C25.5229 16.885 25.8237 17.1467 26.1665 17.3427C26.5094 17.5388 26.8875 17.6652 27.2793 17.7149C27.4238 17.7335 27.5654 17.7395 27.704 17.7365C27.7141 17.9294 27.7194 18.1224 27.7196 18.3155C25.8003 17.8415 24.0075 17.7455 22.3719 17.8937C21.7568 17.9341 21.1448 18.0112 20.5389 18.1247C20.7429 16.3008 21.4293 14.2494 22.7571 12.7524C24.0411 11.3016 25.9515 10.473 28.0334 10.6854C28.4282 10.7256 28.85 10.824 29.2286 10.9506C29.2472 10.9566 29.2658 10.9626 29.2814 10.9656C34.1054 12.9312 37.6573 17.5115 38.0329 23.0471H38.0359ZM25.4895 25.7951C25.4895 25.7951 25.4895 25.7981 25.4865 25.8011C25.0314 26.4551 24.5157 27.0647 23.9463 27.622C23.0839 26.7111 22.3538 25.6834 21.7773 24.5693C21.7497 24.5105 21.7191 24.4583 21.6909 24.3995V24.3935C21.3531 23.6714 21.083 22.9196 20.8839 22.1477C22.1619 21.8459 23.4159 21.7349 24.6147 21.7937L24.8055 21.8027H24.8115C25.5633 21.8645 26.3457 22.0031 27.1557 22.2251C26.7796 23.4894 26.2192 24.6913 25.4925 25.7921L25.4895 25.7951ZM19.3407 10.7226L19.3317 10.7346C17.2216 13.458 16.519 16.8431 16.5502 19.4429C11.6398 21.7469 10.5862 24.4733 11.3008 26.4568C11.3188 26.5126 11.341 26.5648 11.3626 26.6176C11.6705 27.3531 12.2577 27.9362 12.9953 28.2388C13.7329 28.5415 14.5605 28.5389 15.2962 28.2316C16.0316 27.9238 16.6147 27.3365 16.9173 26.5989C17.22 25.8613 17.2174 25.0338 16.9102 24.2981C16.8542 24.1674 16.7895 24.0407 16.7164 23.9189C16.8706 23.8169 17.0368 23.7161 17.2156 23.6111C17.7633 25.5119 18.5739 27.1168 19.5195 28.4596C19.8615 28.9678 20.2311 29.4574 20.6343 29.929C18.9525 30.6652 16.8334 31.0966 14.8708 30.6958C12.9736 30.3082 11.3008 29.0698 10.4416 27.1594C10.277 26.7848 10.1531 26.3935 10.072 25.9925C10.0214 25.648 9.98334 25.3017 9.95803 24.9545C9.52004 18.5069 13.519 12.768 19.3407 10.7226ZM24.9531 38.0367C21.1245 38.2983 17.545 36.9927 14.8402 34.6696C18.2535 35.1352 21.5373 34.0504 23.7741 32.7232C28.2248 35.8251 31.1144 35.3752 32.4758 33.7642C32.7425 33.4532 32.9429 33.0911 33.0646 32.6999C33.1863 32.3088 33.2267 31.8969 33.1835 31.4895C33.1402 31.0821 33.0141 30.6879 32.813 30.331C32.6118 29.9742 32.3399 29.6622 32.0138 29.4142C31.6997 29.1748 31.3415 28.9996 30.9597 28.8986C30.5779 28.7977 30.1799 28.773 29.7885 28.8259C29.3971 28.8788 29.02 29.0084 28.6787 29.2071C28.3374 29.4059 28.0386 29.6699 27.7994 29.9842C27.7136 30.0982 27.6362 30.2218 27.5684 30.3448C27.4052 30.2614 27.2325 30.169 27.0573 30.0676C28.3113 28.7738 29.339 27.2784 30.0974 25.6439C30.3689 25.0906 30.6076 24.5218 30.812 23.9405C32.291 25.0313 33.7262 26.6482 34.361 28.5484C34.9742 30.3844 34.7396 32.4544 33.5138 34.1524C33.2716 34.4818 32.9949 34.7843 32.6882 35.0548L32.6762 35.0668C30.4611 36.8115 27.7702 37.8458 24.9567 38.0337L24.9531 38.0367Z" fill="url(#paint0_linear_359_572)"/>
<path style="mix-blend-mode:overlay" opacity="0.9" d="M28.2122 11.7762C27.8746 11.7121 27.5283 11.708 27.1892 11.7642C28.9118 12.7002 30.1652 15.3096 29.5064 20.4599C29.2883 22.1349 28.7961 23.7626 28.0496 25.2779C27.4063 26.6606 26.5691 27.9445 25.5633 29.0908C26.0401 29.4495 26.5391 29.7778 27.0572 30.0736C28.3115 28.78 29.3394 27.2848 30.098 25.6505C30.8463 24.1359 31.3385 22.5079 31.5548 20.8325C32.3408 14.7024 30.4124 12.1704 28.2128 11.7786L28.2122 11.7762Z" fill="url(#paint1_radial_359_572)"/>
<g style="mix-blend-mode:overlay" opacity="0.8">
<path d="M29.5058 20.4569C30.1652 15.309 28.9112 12.6972 27.1893 11.7606C27.1215 11.7696 27.0573 11.7852 26.9889 11.8008C28.6742 12.771 29.8874 15.3768 29.2376 20.4569C29.0195 22.1319 28.5273 23.7596 27.7808 25.2749C27.1608 26.6087 26.3594 27.8504 25.3995 28.9648C25.4547 29.008 25.5075 29.0482 25.5627 29.0878C26.5677 27.9408 27.4046 26.6568 28.0484 25.2743C28.7969 23.7598 29.2894 22.1324 29.5058 20.4569Z" fill="white"/>
</g>
<path style="mix-blend-mode:overlay" opacity="0.5" d="M22.9599 32.1346C22.7967 32.0116 22.6425 31.882 22.4859 31.7524C19.9443 32.8126 16.423 33.4774 12.9238 32.6644C13.4937 33.3943 14.1344 34.066 14.8366 34.6696C18.2499 35.1352 21.5337 34.0504 23.7705 32.7232C23.4956 32.5312 23.2243 32.3339 22.9569 32.1316L22.9599 32.1346Z" fill="url(#paint2_radial_359_572)"/>
<path style="mix-blend-mode:overlay" opacity="0.6" d="M22.4883 31.7524C22.4115 31.6876 22.3317 31.6234 22.2579 31.5586C19.6977 32.581 16.1584 33.1942 12.6682 32.3224C12.7546 32.4364 12.841 32.5534 12.9268 32.6644C16.4236 33.4774 19.9467 32.8126 22.4883 31.7524Z" fill="url(#paint3_linear_359_572)"/>
<path style="mix-blend-mode:overlay" opacity="0.9" d="M11.3038 26.4605C11.3218 26.5157 11.344 26.5685 11.3656 26.6207C11.4796 26.8919 11.6272 27.1349 11.806 27.3539C11.7568 25.3949 13.3894 23.0009 18.1761 20.9988C19.7357 20.3501 21.3914 19.9629 23.0769 19.8528C24.5965 19.7173 26.1276 19.8003 27.6236 20.0994C27.701 19.4526 27.7316 18.849 27.7256 18.3156C25.9784 17.8757 24.1695 17.7331 22.3749 17.8938C20.6893 18.0042 19.0334 18.3914 17.4735 19.0398C11.7724 21.4241 10.543 24.3599 11.3044 26.4635V26.4605H11.3038Z" fill="url(#paint4_radial_359_572)"/>
<g style="mix-blend-mode:overlay" opacity="0.8">
<path d="M18.1761 21.0017C13.3894 23.0045 11.7562 25.3979 11.806 27.3569C11.8492 27.4091 11.8954 27.4589 11.9416 27.5081C11.938 25.5641 13.5892 23.2109 18.3117 21.2327C19.8713 20.5841 21.527 20.1969 23.2125 20.0867C24.6777 19.9572 26.1537 20.0298 27.599 20.3027C27.6087 20.2351 27.6169 20.1673 27.6236 20.0993C26.1274 19.802 24.5965 19.7192 23.0769 19.8533C21.3915 19.9638 19.7358 20.351 18.1761 20.9993V21.0017Z" fill="white"/>
</g>
<path style="mix-blend-mode:overlay" opacity="0.4" d="M31.5608 20.8295C31.5368 21.0329 31.5026 21.2297 31.4684 21.4301C33.6554 23.0999 35.9935 25.8197 37.0411 29.254C37.3874 28.3947 37.6484 27.5034 37.8205 26.593C36.5173 23.4047 33.9362 21.1031 31.6688 19.8311C31.6412 20.1551 31.607 20.4845 31.5638 20.8295H31.5608Z" fill="url(#paint5_radial_359_572)"/>
<path style="mix-blend-mode:overlay" opacity="0.5" d="M31.4684 21.4301C31.4498 21.5285 31.4342 21.6305 31.4156 21.7289C33.5816 23.4353 35.8826 26.1929 36.8714 29.6518C36.9296 29.5198 36.9854 29.3866 37.0376 29.2546C35.9906 25.8197 33.6554 23.1029 31.4648 21.4301H31.4684Z" fill="url(#paint6_linear_359_572)"/>
<path style="mix-blend-mode:overlay" opacity="0.9" d="M32.4758 33.7612C32.6984 33.499 32.8754 33.2012 32.9996 32.8804C31.3268 33.9028 28.4396 33.6844 24.3093 30.5386C22.9666 29.513 21.8029 28.2723 20.8653 26.8667C19.9881 25.6188 19.2941 24.2517 18.8043 22.8071C18.2068 23.0627 17.668 23.3399 17.206 23.6111C17.6998 25.344 18.4806 26.9819 19.5159 28.4567C20.4399 29.8367 21.5919 31.0846 22.9599 32.1286C27.8763 35.8744 31.034 35.4706 32.4722 33.7606H32.4758V33.7612Z" fill="url(#paint7_radial_359_572)"/>
<g style="mix-blend-mode:overlay" opacity="0.8">
<path d="M24.3123 30.5392C28.4396 33.6838 31.3292 33.9028 33.0014 32.8798C33.026 32.8156 33.0476 32.7508 33.0662 32.689C31.3844 33.6658 28.5194 33.4096 24.4473 30.3082C23.1046 29.2826 21.9409 28.0418 21.0033 26.6362C20.1585 25.4327 19.4837 24.1183 18.9981 22.7303C18.9333 22.7579 18.8721 22.7825 18.8103 22.8101C19.2998 24.2549 19.9936 25.6221 20.8707 26.8702C21.7947 28.2502 22.9467 29.4982 24.3147 30.5422L24.3117 30.5392H24.3123Z" fill="white"/>
</g>
<path style="mix-blend-mode:overlay" opacity="0.3" d="M17.4706 19.0338C17.6584 18.9564 17.8462 18.8856 18.037 18.8148C18.3886 16.0854 19.5741 12.7002 22.0269 10.0789C21.1089 10.2109 20.2059 10.4269 19.3311 10.7317C17.2204 13.455 16.5184 16.8402 16.5496 19.4406C16.8418 19.3026 17.1472 19.1664 17.4676 19.0344L17.4706 19.0338Z" fill="url(#paint8_radial_359_572)"/>
<path style="mix-blend-mode:overlay" opacity="0.4" d="M18.0363 18.8148C18.1323 18.7812 18.2247 18.744 18.3201 18.7104C18.7143 15.9804 19.9527 12.6108 22.4511 10.0231C22.3095 10.0387 22.1673 10.0573 22.0257 10.0759C19.5735 12.7002 18.3879 16.0824 18.0369 18.8118V18.8148H18.0363Z" fill="url(#paint9_linear_359_572)"/>
<path style="mix-blend-mode:multiply" opacity="0.4" d="M22.7781 6.04328C17.8371 6.37928 13.5004 8.68025 10.4722 12.1272L10.4044 12.204C10.9924 12.7896 12.9208 13.9416 13.7002 14.4222C15.2533 12.749 17.1905 11.4792 19.3443 10.7226C19.4955 10.5252 19.6551 10.3314 19.8219 10.1436C21.8547 7.84866 24.6303 6.63787 27.8522 6.63787C28.2098 6.63787 28.94 6.69667 28.955 6.69667C26.9502 6.11995 24.8599 5.89861 22.7787 6.04268L22.7781 6.04328Z" fill="url(#paint10_linear_359_572)"/>
<path style="mix-blend-mode:multiply" opacity="0.4" d="M24.9531 38.0397C21.1245 38.3013 17.545 36.9957 14.8402 34.6732C14.5862 34.64 14.3334 34.5977 14.0824 34.5466C11.0788 33.9334 8.63925 32.1346 7.03126 29.347C6.85421 29.039 6.6928 28.7222 6.54767 28.3978C8.62725 36.6873 16.393 42.5589 25.2183 41.9577C25.2585 41.0493 24.9903 38.9397 24.9501 38.0397H24.9531Z" fill="url(#paint11_linear_359_572)"/>
<path style="mix-blend-mode:multiply" opacity="0.4" d="M41.9545 22.7795C41.4001 22.7237 38.7013 22.9367 38.0365 23.0471C38.1193 24.2675 38.0425 25.4627 37.8235 26.6146C37.9159 26.8426 38.0053 27.0766 38.0851 27.3136C39.0559 30.2218 38.7169 33.2314 37.1089 36.0219C36.9309 36.3294 36.7377 36.6278 36.5299 36.9159C36.5299 36.9159 36.5389 36.9093 36.5419 36.9033C40.1989 33.3454 42.3271 28.2688 41.9545 22.7825V22.7795Z" fill="url(#paint12_linear_359_572)"/>
<path style="mix-blend-mode:multiply" opacity="0.5" d="M28.037 10.6824C28.4312 10.7226 28.853 10.821 29.2322 10.9476C29.2502 10.9536 29.2694 10.9596 29.2844 10.9626C30.8296 11.5933 32.2511 12.4924 33.4832 13.6182C33.4832 13.6182 33.4892 13.6212 33.4922 13.6242C34.0838 12.9498 35.2202 12.2076 35.2202 12.2076C35.2202 12.2076 33.4802 10.4268 30.8156 9.87244C28.952 9.48425 24.7473 9.11165 22.0947 13.6242L22.1193 13.6002C22.3167 13.3038 22.5231 13.0146 22.7601 12.7494C24.0447 11.2986 25.9545 10.4694 28.037 10.6824Z" fill="url(#paint13_linear_359_572)"/>
<path style="mix-blend-mode:multiply" opacity="0.5" d="M33.5138 34.1554C33.2716 34.4848 32.9948 34.7873 32.6882 35.0578C32.6762 35.0698 32.6606 35.0824 32.648 35.095C31.3291 36.117 29.8401 36.898 28.2494 37.4019C28.2464 37.4019 28.2434 37.4019 28.2398 37.4049C28.5296 38.2551 28.6034 39.6105 28.6034 39.6105C28.6034 39.6105 31.0154 38.9949 32.8274 36.9645C34.0934 35.5444 36.5203 32.0884 33.9386 27.5356C33.9386 27.5356 33.9422 27.5506 33.9482 27.5692C34.1084 27.8872 34.253 28.213 34.364 28.549C34.9772 30.385 34.7426 32.455 33.5168 34.1524L33.5138 34.1554Z" fill="url(#paint14_linear_359_572)"/>
<path style="mix-blend-mode:multiply" opacity="0.5" d="M10.4482 27.1661C10.2834 26.7912 10.1593 26.3998 10.078 25.9985C10.075 25.9805 10.069 25.9613 10.066 25.9427C9.83803 24.2825 9.91183 22.6007 10.2664 20.9807V20.9711C9.38504 20.7983 8.17485 20.1827 8.17485 20.1827C8.17485 20.1827 7.50286 22.5827 8.35665 25.1639C8.95424 26.9717 10.7314 30.8008 15.9646 30.841C15.9646 30.841 15.9496 30.8374 15.931 30.8314C15.577 30.8098 15.223 30.7732 14.875 30.7024C12.9772 30.3142 11.3044 29.0758 10.4446 27.1661H10.4482Z" fill="url(#paint15_linear_359_572)"/>
<path style="mix-blend-mode:multiply" opacity="0.6" d="M27.2792 17.7126C27.4238 17.7306 27.5654 17.7366 27.704 17.7336C27.704 17.7336 27.6086 15.864 27.3806 14.9028C27.1496 13.9446 26.8106 13.3068 26.441 12.9468C26.1734 12.6882 25.3323 12.3672 24.6795 14.3448C24.6288 14.7365 24.6559 15.1343 24.7592 15.5155C24.8625 15.8966 25.04 16.2537 25.2815 16.5662C25.523 16.8787 25.8237 17.1405 26.1665 17.3366C26.5093 17.5326 26.8875 17.6592 27.2792 17.709V17.712V17.7126Z" fill="url(#paint16_linear_359_572)"/>
<path style="mix-blend-mode:multiply" opacity="0.5" d="M16.9143 24.3041C16.8582 24.1736 16.7933 24.0471 16.7199 23.9255C16.7199 23.9255 15.1456 24.9419 14.431 25.6193C13.7164 26.2973 13.3342 26.9104 13.2082 27.412C13.1188 27.7726 13.2604 28.66 15.2998 28.2376C16.0352 27.9298 16.6183 27.3425 16.9209 26.6049C17.2236 25.8673 17.221 25.0398 16.9137 24.3041H16.9143Z" fill="url(#paint17_linear_359_572)"/>
<path style="mix-blend-mode:multiply" opacity="0.6" d="M27.8031 29.9812C27.7167 30.0952 27.6399 30.2188 27.5721 30.3412C27.5721 30.3412 29.2388 31.195 30.1844 31.4752C31.13 31.756 31.8506 31.7806 32.3468 31.6384C32.7044 31.537 33.4004 30.967 32.0168 29.4148C31.7027 29.1755 31.3446 29.0003 30.9628 28.8995C30.5811 28.7986 30.1831 28.7739 29.7918 28.8268C29.4005 28.8797 29.0235 29.0093 28.6822 29.208C28.341 29.4066 28.0422 29.6706 27.8031 29.9848V29.9812Z" fill="url(#paint18_linear_359_572)"/>
<path style="mix-blend-mode:multiply" opacity="0.3" d="M27.1563 22.2281C26.7783 23.4851 26.2479 24.6281 25.5981 25.6349C25.5639 25.6871 25.5303 25.7399 25.4931 25.7951C25.4931 25.7951 25.4931 25.7981 25.4901 25.8011C25.035 26.4551 24.5193 27.0648 23.9499 27.6221C24.3627 28.0595 24.8061 28.4843 25.2963 28.8881C25.8529 29.3259 26.4418 29.7213 27.0579 30.0707C28.3121 28.7771 29.34 27.2819 30.0986 25.6475C30.37 25.0941 30.6084 24.5251 30.8126 23.9435C30.1784 23.4785 29.5376 23.1059 28.9466 22.8533C28.364 22.6037 27.7648 22.3948 27.1533 22.2281H27.1569H27.1563Z" fill="url(#paint19_linear_359_572)"/>
<path style="mix-blend-mode:multiply" opacity="0.3" d="M14.8408 34.6732C18.2535 35.1382 21.5373 34.054 23.7741 32.7262C23.4992 32.5342 23.2279 32.3369 22.9605 32.1346C22.1098 31.4839 21.3296 30.7458 20.6325 29.9326C18.9501 30.6682 16.831 31.0996 14.8684 30.6988C12.9712 30.3112 11.2984 29.0729 10.4386 27.1631C10.274 26.7882 10.1501 26.3968 10.069 25.9955C10.5652 29.476 12.3208 32.5132 14.8378 34.6726L14.8408 34.6732Z" fill="url(#paint20_linear_359_572)"/>
<path style="mix-blend-mode:multiply" opacity="0.3" d="M23.9493 27.6214C23.0871 26.7106 22.3572 25.6832 21.7809 24.5693C21.7533 24.5105 21.7221 24.4583 21.6945 24.3995V24.3935C21.3567 23.6714 21.0865 22.9196 20.8875 22.1477C20.3019 22.2863 19.7139 22.4591 19.1223 22.6811C18.4656 22.9435 17.8292 23.2544 17.2185 23.6111C17.7669 25.5119 18.5769 27.1169 19.5225 28.4596C19.8645 28.9678 20.2347 29.4574 20.6385 29.929C21.3585 29.6146 22.0029 29.242 22.5165 28.8568C23.0224 28.4769 23.5021 28.0631 23.9523 27.6184L23.9493 27.6214Z" fill="url(#paint21_linear_359_572)"/>
<path style="mix-blend-mode:multiply" opacity="0.3" d="M19.3323 10.7346C17.2222 13.458 16.5196 16.8432 16.5508 19.4429C16.8549 19.3001 17.1619 19.1637 17.4718 19.0337C18.4592 18.6213 19.4875 18.3146 20.5395 18.1187C20.7435 16.2948 21.4299 14.2434 22.7577 12.7464C24.0417 11.2956 25.9521 10.4664 28.0346 10.6794C28.4288 10.7196 28.8506 10.818 29.2298 10.9446C29.2478 10.9506 29.2664 10.9566 29.282 10.9596C27.3054 10.153 25.17 9.81066 23.0403 9.95883C21.7467 10.0482 20.5083 10.3098 19.3377 10.7226C19.3347 10.7256 19.3317 10.7316 19.3287 10.7346H19.3323Z" fill="url(#paint22_linear_359_572)"/>
<path style="mix-blend-mode:multiply" opacity="0.3" d="M37.8205 26.5901C36.515 23.4017 33.9332 21.0971 31.6658 19.8251C31.6382 20.1491 31.6046 20.4815 31.5578 20.8295C31.4203 21.8907 31.1716 22.9344 30.8156 23.9435C32.2946 25.0343 33.7298 26.6513 34.3646 28.552C34.9772 30.388 34.7432 32.458 33.5174 34.1554C33.2752 34.4848 32.9984 34.7873 32.6918 35.0578L32.6798 35.0698C35.3228 32.9938 37.1917 29.9998 37.8331 26.6117C37.8331 26.6057 37.8271 26.5991 37.8271 26.5931L37.8205 26.5901Z" fill="url(#paint23_linear_359_572)"/>
<path style="mix-blend-mode:multiply" opacity="0.3" d="M20.5299 20.2871C20.6053 20.9146 20.7236 21.5363 20.8839 22.1477C22.1625 21.8459 23.4159 21.7349 24.6147 21.7937L24.8055 21.8027H24.8115C25.5633 21.8645 26.3457 22.0031 27.1562 22.2251C27.3284 21.6491 27.4736 21.0509 27.578 20.4287C27.692 19.6529 27.7256 18.9347 27.7226 18.3095C25.8039 17.8355 24.0111 17.7395 22.3755 17.8877C21.7604 17.928 21.1483 18.0052 20.5425 18.1187C20.4561 18.9011 20.4525 19.6433 20.5329 20.2847L20.5299 20.2871Z" fill="url(#paint24_linear_359_572)"/>
<defs>
<linearGradient id="paint0_linear_359_572" x1="11.7166" y1="36.2841" x2="34.6658" y2="13.332" gradientUnits="userSpaceOnUse">
<stop stop-color="#E6007A"/>
<stop offset="0.21" stop-color="#703AC2"/>
<stop offset="0.46" stop-color="#0070EB"/>
<stop offset="0.77" stop-color="#0297FB"/>
<stop offset="1" stop-color="#0AE2FF"/>
</linearGradient>
<radialGradient id="paint1_radial_359_572" cx="0" cy="0" r="1" gradientUnits="userSpaceOnUse" gradientTransform="translate(29.1302 20.3549) scale(6.84473)">
<stop stop-color="white"/>
<stop offset="1" stop-color="white" stop-opacity="0"/>
</radialGradient>
<radialGradient id="paint2_radial_359_572" cx="0" cy="0" r="1" gradientUnits="userSpaceOnUse" gradientTransform="translate(19.0143 33.0526) scale(3.98299 3.983)">
<stop stop-color="white"/>
<stop offset="1" stop-color="white" stop-opacity="0"/>
</radialGradient>
<linearGradient id="paint3_linear_359_572" x1="13.0378" y1="32.3782" x2="16.8766" y2="32.3254" gradientUnits="userSpaceOnUse">
<stop stop-color="white" stop-opacity="0"/>
<stop offset="1" stop-color="white"/>
</linearGradient>
<radialGradient id="paint4_radial_359_572" cx="0" cy="0" r="1" gradientUnits="userSpaceOnUse" gradientTransform="translate(18.2789 21.3768) rotate(-120) scale(6.84473)">
<stop stop-color="white"/>
<stop offset="1" stop-color="white" stop-opacity="0"/>
</radialGradient>
<radialGradient id="paint5_radial_359_572" cx="0" cy="0" r="1" gradientUnits="userSpaceOnUse" gradientTransform="translate(34.3338 23.7893) rotate(-120) scale(3.98299)">
<stop stop-color="white"/>
<stop offset="1" stop-color="white" stop-opacity="0"/>
</radialGradient>
<linearGradient id="paint6_linear_359_572" x1="36.7364" y1="29.2996" x2="34.7714" y2="26.0021" gradientUnits="userSpaceOnUse">
<stop stop-color="white" stop-opacity="0"/>
<stop offset="1" stop-color="white"/>
</linearGradient>
<radialGradient id="paint7_radial_359_572" cx="0" cy="0" r="1" gradientUnits="userSpaceOnUse" gradientTransform="translate(24.2647 29.9471) rotate(120) scale(6.84473)">
<stop stop-color="white"/>
<stop offset="1" stop-color="white" stop-opacity="0"/>
</radialGradient>
<radialGradient id="paint8_radial_359_572" cx="0" cy="0" r="1" gradientUnits="userSpaceOnUse" gradientTransform="translate(18.6498 15.1566) rotate(120) scale(3.98299)">
<stop stop-color="white"/>
<stop offset="1" stop-color="white" stop-opacity="0"/>
</radialGradient>
<linearGradient id="paint9_linear_359_572" x1="22.2195" y1="10.3165" x2="20.3481" y2="13.6686" gradientUnits="userSpaceOnUse">
<stop stop-color="white" stop-opacity="0"/>
<stop offset="1" stop-color="white"/>
</linearGradient>
<linearGradient id="paint10_linear_359_572" x1="23.0559" y1="8.61245" x2="17.1903" y2="10.3188" gradientUnits="userSpaceOnUse">
<stop stop-color="#231F20"/>
<stop offset="1" stop-color="white"/>
</linearGradient>
<linearGradient id="paint11_linear_359_572" x1="11.9752" y1="30.9766" x2="16.8796" y2="36.0957" gradientUnits="userSpaceOnUse">
<stop stop-color="#231F20"/>
<stop offset="1" stop-color="white"/>
</linearGradient>
<linearGradient id="paint12_linear_359_572" x1="38.2951" y1="30.2062" x2="40.0015" y2="25.0187" gradientUnits="userSpaceOnUse">
<stop stop-color="#231F20"/>
<stop offset="1" stop-color="white"/>
</linearGradient>
<linearGradient id="paint13_linear_359_572" x1="25.7265" y1="11.5818" x2="33.5882" y2="13.3812" gradientUnits="userSpaceOnUse">
<stop stop-color="#231F20"/>
<stop offset="1" stop-color="white"/>
</linearGradient>
<linearGradient id="paint14_linear_359_572" x1="33.8918" y1="31.7044" x2="28.3988" y2="37.6143" gradientUnits="userSpaceOnUse">
<stop stop-color="#231F20"/>
<stop offset="1" stop-color="white"/>
</linearGradient>
<linearGradient id="paint15_linear_359_572" x1="12.3802" y1="28.7171" x2="10.0102" y2="21.0077" gradientUnits="userSpaceOnUse">
<stop stop-color="#231F20"/>
<stop offset="1" stop-color="white"/>
</linearGradient>
<linearGradient id="paint16_linear_359_572" x1="27.4454" y1="14.4804" x2="24.9597" y2="16.9698" gradientUnits="userSpaceOnUse">
<stop stop-color="#231F20"/>
<stop offset="1" stop-color="white"/>
</linearGradient>
<linearGradient id="paint17_linear_359_572" x1="14.0338" y1="25.7711" x2="17.4309" y2="26.6836" gradientUnits="userSpaceOnUse">
<stop stop-color="#231F20"/>
<stop offset="1" stop-color="white"/>
</linearGradient>
<linearGradient id="paint18_linear_359_572" x1="30.5168" y1="31.7422" x2="29.6066" y2="28.3462" gradientUnits="userSpaceOnUse">
<stop stop-color="#231F20"/>
<stop offset="1" stop-color="white"/>
</linearGradient>
<linearGradient id="paint19_linear_359_572" x1="25.3455" y1="28.7213" x2="26.8395" y2="26.6609" gradientUnits="userSpaceOnUse">
<stop stop-color="#231F20"/>
<stop offset="1" stop-color="white"/>
</linearGradient>
<linearGradient id="paint20_linear_359_572" x1="20.2071" y1="27.8285" x2="17.2222" y2="29.2516" gradientUnits="userSpaceOnUse">
<stop stop-color="#231F20"/>
<stop offset="1" stop-color="white"/>
</linearGradient>
<linearGradient id="paint21_linear_359_572" x1="19.1223" y1="22.8593" x2="20.0463" y2="24.7787" gradientUnits="userSpaceOnUse">
<stop stop-color="#231F20"/>
<stop offset="1" stop-color="white"/>
</linearGradient>
<linearGradient id="paint22_linear_359_572" x1="23.4201" y1="16.9326" x2="22.7823" y2="14.73" gradientUnits="userSpaceOnUse">
<stop stop-color="#231F20"/>
<stop offset="1" stop-color="white"/>
</linearGradient>
<linearGradient id="paint23_linear_359_572" x1="30.314" y1="27.0209" x2="32.162" y2="27.4463" gradientUnits="userSpaceOnUse">
<stop stop-color="#231F20"/>
<stop offset="1" stop-color="white"/>
</linearGradient>
<linearGradient id="paint24_linear_359_572" x1="27.4148" y1="20.7773" x2="25.0707" y2="20.3519" gradientUnits="userSpaceOnUse">
<stop stop-color="#231F20"/>
<stop offset="1" stop-color="white"/>
</linearGradient>
</defs>
</svg>
