<svg width="25" height="25" viewBox="0 0 48 48" fill="none" xmlns="http://www.w3.org/2000/svg">
<path d="M24 38.175C29.3147 38.175 33.9462 35.25 36.3727 30.9223C33.2409 32.5179 27.8284 32.7258 22.075 31.1842C21.0654 30.9135 20.0918 30.6015 19.1623 30.2552C17.9689 31.269 16.1773 31.2123 15.0507 30.0855C14.4246 29.4598 14.129 28.6283 14.1637 27.8083C12.2289 26.58 10.7306 25.2032 9.82622 23.8124L9.825 24C9.825 31.8284 16.1714 38.175 24 38.175Z" fill="green"/>
<path d="M22.5991 29.2282C21.7635 29.0041 20.9584 28.7514 20.1885 28.4745C20.3572 27.5297 20.0765 26.5203 19.3463 25.7899C18.1601 24.6038 16.2369 24.6038 15.0507 25.7899C15.0142 25.8264 14.9788 25.8637 14.9445 25.9015C14.3511 25.5091 13.8123 25.1048 13.3339 24.6952C11.1156 22.7968 10.7209 21.2969 10.9347 20.4993C11.1485 19.7013 12.2402 18.6 15.1106 18.0647C17.8195 17.5598 21.4789 17.7211 25.4008 18.7718C25.527 18.8057 25.6525 18.8399 25.7773 18.8751L25.9746 18.9313C25.9598 19.7276 26.2562 20.5288 26.8638 21.1361C28.05 22.3226 29.9732 22.3226 31.1594 21.1361C31.1924 21.1031 31.2245 21.0697 31.2557 21.0354C32.5904 21.7412 33.7411 22.5129 34.666 23.3048C36.8843 25.2032 37.279 26.7031 37.0652 27.5007C36.8514 28.2987 35.7597 29.4 32.8893 29.9353C30.1805 30.4402 26.521 30.2789 22.5991 29.2282Z" fill="green"/>
<path d="M32.0441 19.1625C34.8509 20.6215 37.0069 22.3929 38.1738 24.1876L38.175 24C38.175 16.1716 31.8286 9.825 24 9.825C18.6854 9.825 14.0538 12.75 11.6273 17.0777C14.7591 15.4821 20.1716 15.2742 25.9249 16.8158C26.182 16.8848 26.4368 16.9564 26.6891 17.0307C26.7441 16.9652 26.8024 16.902 26.8638 16.8404C28.05 15.6543 29.9732 15.6543 31.1594 16.8404C31.7968 17.4781 32.0917 18.328 32.0441 19.1625Z" fill="green"/>
<path fill-rule="evenodd" clip-rule="evenodd" d="M24 42C33.9411 42 42 33.9413 42 24C42 14.0587 33.9411 6 24 6C14.0589 6 6 14.0587 6 24C6 33.9413 14.0589 42 24 42ZM24 40.2C32.947 40.2 40.2 32.9468 40.2 24C40.2 15.0532 32.947 7.8 24 7.8C15.053 7.8 7.8 15.0532 7.8 24C7.8 32.9468 15.053 40.2 24 40.2Z" fill="white"/>
</svg>
