<svg width="12px" height="12px" viewBox="-33.28 -33.28 194.56 194.56"
	xmlns="http://www.w3.org/2000/svg"
	xmlns:xlink="http://www.w3.org/1999/xlink" aria-hidden="true" role="img" class="iconify iconify--noto" preserveAspectRatio="xMidYMid meet" fill="#2fc864" stroke="#2fc864" transform="matrix(-1, 0, 0, 1, 0, 0)rotate(-45)">
	<g id="SVGRepo_bgCarrier" stroke-width="0">
		<rect x="-33.28" y="-33.28" width="194.56" height="194.56" rx="97.28" fill="#9ce8a1" strokewidth="0"></rect>
	</g>
	<g id="SVGRepo_tracerCarrier" stroke-linecap="round" stroke-linejoin="round"></g>
	<g id="SVGRepo_iconCarrier">
		<circle cx="63.93" cy="64" r="60" fill="#6eb981"></circle>
		<circle cx="60.03" cy="63.1" r="56.1" fill="#2fc864"></circle>
		<path d="M23.93 29.7c4.5-7.1 14.1-13 24.1-14.8c2.5-.4 5-.6 7.1.2c1.6.6 2.9 2.1 2 3.8c-.7 1.4-2.6 2-4.1 2.5a44.64 44.64 0 0 0-23 17.4c-2 3-5 11.3-8.7 9.2c-3.9-2.3-3.1-9.5 2.6-18.3z" fill="#8adb9e"></path>
	</g>
</svg>