<svg height="60px" width="60px" version="1.1" id="Layer_1" xmlns="http://www.w3.org/2000/svg" xmlns:xlink="http://www.w3.org/1999/xlink" 
	 viewBox="0 0 511.999 511.999" xml:space="preserve">
<path style="fill:#FFC61B;" d="M24.056,430.695c-8.405,0-15.218-6.813-15.218-15.218v-257.03c0-8.405,6.813-15.218,15.218-15.218
	s15.218,6.813,15.218,15.218v257.03C39.274,423.882,32.461,430.695,24.056,430.695z"/>
<path style="fill:#FEE187;" d="M491.523,177.309v-48.23h-27.659c-2.896-13.307-8.139-25.728-15.271-36.828l19.569-19.569
	l-34.104-34.105l-19.569,19.57c-11.1-7.133-23.521-12.375-36.828-15.271V15.218h-48.23v27.659
	c-13.307,2.896-25.728,8.139-36.828,15.271l-19.569-19.57l-34.105,34.105L258.5,92.251c-7.133,11.1-12.375,23.521-15.271,36.828
	H215.57v48.23h27.659c2.896,13.307,8.139,25.728,15.271,36.828l-19.569,19.569l34.105,34.104l19.569-19.569
	c11.1,7.133,23.521,12.375,36.828,15.271v27.659h48.23v-27.659c13.307-2.896,25.728-8.139,36.828-15.271l19.569,19.569
	l34.105-34.104l-19.569-19.569c7.133-11.1,12.375-23.521,15.271-36.828L491.523,177.309L491.523,177.309z"/>
<g>
	<path style="fill:#FFC61B;" d="M491.523,113.861h-16.012c-2.115-6.565-4.759-12.941-7.918-19.088l11.33-11.33
		c2.853-2.853,4.457-6.725,4.457-10.761s-1.604-7.907-4.457-10.761l-34.105-34.104c-5.943-5.943-15.579-5.943-21.521,0l-11.33,11.33
		c-6.147-3.158-12.521-5.803-19.088-7.918V15.218C392.879,6.813,386.066,0,377.661,0h-48.23c-8.405,0-15.218,6.813-15.218,15.218
		V31.23c-6.567,2.115-12.941,4.759-19.088,7.918l-11.33-11.33c-5.943-5.941-15.579-5.941-21.521,0l-34.105,34.104
		c-0.023,0.023-0.041,0.047-0.064,0.07H75.981c-0.447-0.04-0.896-0.068-1.354-0.068c-0.458,0-0.907,0.029-1.354,0.068H20.469
		c-8.405,0-15.218,6.813-15.218,15.218s6.813,15.218,15.218,15.218h38.94v84.397c0,23.355,11.13,45.161,29.763,58.32l73.195,51.817
		l-73.182,51.807c-18.645,13.168-29.776,34.974-29.776,58.329v38.521c0,8.405,6.813,15.218,15.218,15.218
		s15.218-6.813,15.218-15.218v-38.521c0-13.483,6.317-25.995,16.912-33.48l82.045-58.081l82.057,58.09
		c10.581,7.474,16.898,19.986,16.898,33.469v84.397H20.469c-8.405,0-15.218,6.813-15.218,15.218s6.813,15.218,15.218,15.218h281.152
		c0.447,0.04,0.896,0.069,1.354,0.069c0.458,0,0.907-0.029,1.354-0.069h52.805c8.405,0,15.218-6.813,15.218-15.218
		s-6.813-15.218-15.218-15.218h-38.94v-84.396c0-23.355-11.13-45.161-29.763-58.32l-90.836-64.305
		c-0.482-0.342-0.985-0.642-1.494-0.921l-89.355-63.257c-10.581-7.474-16.898-19.986-16.898-33.469V92.428h147.309l2.345,2.345
		c-3.158,6.147-5.803,12.523-7.916,19.088h-16.012c-8.405,0-15.218,6.813-15.218,15.218v48.23c0,8.405,6.813,15.218,15.218,15.218
		h16.012c2.115,6.565,4.759,12.941,7.916,19.088l-11.33,11.33c-2.853,2.853-4.457,6.725-4.457,10.761
		c0,4.036,1.604,7.907,4.457,10.761l34.105,34.105c5.944,5.944,15.579,5.944,21.523,0l11.33-11.33
		c6.148,3.158,12.523,5.803,19.088,7.918v16.012c0,8.405,6.813,15.218,15.218,15.218h8.898v109.089
		c0,8.405,6.813,15.218,15.218,15.218c8.405,0,15.218-6.813,15.218-15.218V306.39h8.898c8.405,0,15.218-6.813,15.218-15.218v-16.012
		c6.565-2.115,12.941-4.759,19.088-7.918l11.33,11.33c5.943,5.943,15.579,5.943,21.521,0l34.105-34.105
		c5.943-5.943,5.943-15.579,0-21.521l-11.33-11.33c3.158-6.147,5.803-12.523,7.918-19.088h16.012
		c8.405,0,15.218-6.813,15.218-15.218v-48.23C506.741,120.674,499.928,113.861,491.523,113.861z M476.305,162.091h-12.441
		c-7.159,0-13.348,4.988-14.869,11.983c-2.464,11.324-6.907,22.036-13.205,31.836c-3.868,6.022-3.019,13.926,2.042,18.987
		l8.808,8.808l-12.584,12.584l-8.808-8.808c-5.06-5.062-12.964-5.912-18.987-2.042c-9.8,6.297-20.512,10.741-31.836,13.205
		c-6.994,1.522-11.983,7.712-11.983,14.869v12.441h-17.794v-12.441c0-7.159-4.988-13.348-11.983-14.869
		c-11.324-2.464-22.036-6.907-31.836-13.205c-6.023-3.87-13.928-3.019-18.987,2.042l-8.81,8.81l-12.584-12.584l8.81-8.808
		c5.062-5.062,5.911-12.966,2.042-18.987c-6.297-9.799-10.739-20.511-13.203-31.836c-1.522-6.994-7.712-11.983-14.869-11.983
		h-12.441v-17.796h12.441c7.159,0,13.348-4.988,14.869-11.983c2.465-11.325,6.907-22.037,13.203-31.836
		c3.868-6.022,3.019-13.926-2.042-18.987l-8.81-8.808L273.033,60.1l8.81,8.81c5.06,5.062,12.966,5.911,18.987,2.041
		c9.799-6.297,20.511-10.739,31.836-13.203c6.994-1.522,11.983-7.712,11.983-14.869V30.436h17.794v12.441
		c0,7.159,4.988,13.348,11.983,14.869c11.325,2.465,22.037,6.907,31.836,13.203c6.02,3.87,13.926,3.019,18.987-2.042l8.808-8.808
		l12.584,12.582l-8.808,8.808c-5.061,5.062-5.912,12.966-2.042,18.987c6.297,9.8,10.741,20.512,13.205,31.836
		c1.522,6.994,7.712,11.983,14.869,11.983h12.441V162.091z"/>
	<path style="fill:#FFC61B;" d="M353.547,230.807c-42.796,0-77.612-34.816-77.612-77.612s34.816-77.612,77.612-77.612
		c8.405,0,15.218,6.813,15.218,15.218s-6.813,15.218-15.218,15.218c-26.012,0-47.176,21.164-47.176,47.176
		s21.164,47.176,47.176,47.176s47.176-21.164,47.176-47.176c0-8.405,6.813-15.218,15.218-15.218s15.218,6.813,15.218,15.218
		C431.158,195.989,396.343,230.807,353.547,230.807z"/>
</g>
</svg>