<svg fill="#858C95" width="15px" height="15px" viewBox="0 0 512 512" enable-background="new 0 0 512 512" id="Layer_1" version="1.1" xml:space="preserve" xmlns="http://www.w3.org/2000/svg" xmlns:xlink="http://www.w3.org/1999/xlink">

<g>

<path d="M283.483,61.227c4.089,1.734,8.521,2.842,13.149,3.238l-0.057-0.17v-0.037l-0.087-0.227l-0.085-0.199l-0.027-0.028   l-0.057-0.17l-0.145-0.313l-0.027-0.086l-0.168-0.396l-0.174-0.397l-0.026-0.084l-0.425-0.91l-0.028-0.027l-0.088-0.172   l-0.084-0.198l-0.284-0.539v-0.028l-0.111-0.199l-0.117-0.256l-0.084-0.111c-1.985-3.75-4.545-7.188-7.526-10.17   c-2.584-2.586-5.511-4.858-8.691-6.705l-0.026,0.085l-0.061,0.058v0.028l-0.027,0.056l-0.029,0.086l-0.055,0.086l-0.029,0.086   l-0.027,0.084l-0.027,0.058l-0.027,0.028l-0.028,0.056l-0.088,0.171l-0.028,0.086l-0.027,0.086h-0.027l-0.028,0.085l-0.028,0.058   l-0.026,0.084l-0.058,0.086l-0.031,0.084l-0.027,0.059l-0.027,0.027l-0.029,0.086l-0.026,0.057l-0.058,0.085l-0.027,0.086   l-0.027,0.084l-0.057,0.087l-0.031,0.057l-0.057,0.086l-0.027,0.084l-0.057,0.086V45.4l-0.028,0.059l-0.056,0.085l-0.028,0.058   l-0.028,0.084l-0.06,0.086l-0.027,0.057v0.029l-0.057,0.057l-0.028,0.085l-0.056,0.086l-0.028,0.084l-0.061,0.086l-0.027,0.056   l-0.057,0.086l-0.027,0.086l-0.057,0.086l-0.027,0.056l-0.028,0.06L276.5,46.71l-0.027,0.085l-0.061,0.086l-0.026,0.057   l-0.058,0.086l-0.027,0.084h-0.027l-0.027,0.059l-0.029,0.084l-0.055,0.086l-0.062,0.084l-0.027,0.059l-0.028,0.058l-0.027,0.026   l-0.028,0.086l-0.056,0.086l-0.084,0.142l-0.061,0.086l-0.027,0.058l-0.058,0.086l-0.14,0.256   c-0.656,1.078-1.365,2.158-2.104,3.182l-0.027,0.057l-0.031,0.027l-0.057,0.086l-0.057,0.084l-0.057,0.086l-0.057,0.084h-0.027   l-0.372,0.514l-0.056,0.084l-0.058,0.086l-0.056,0.084l-0.028,0.029l-0.028,0.028l-0.088,0.084l-0.056,0.086l-0.058,0.085   l-0.055,0.086l-0.085,0.086l-0.06,0.084l-0.057,0.086l-0.057,0.084l-0.057,0.028l-0.028,0.058l-0.056,0.057l-0.061,0.087   l-0.085,0.084C275.215,56.854,279.163,59.382,283.483,61.227z"/>

<path d="M274.249,147.254v-20.451c-5.426,2.018-11.304,3.098-17.41,3.098c-6.647,0-12.982-1.278-18.804-3.637v21.842l16.986,16.334   L274.249,147.254z"/>

<path d="M256.838,122.629c11.788,0,22.469-4.771,30.191-12.498c7.729-7.727,12.525-18.405,12.525-30.193   c0-2.783-0.28-5.481-0.794-8.096c-6.391-0.17-12.524-1.561-18.122-3.947c-5.08-2.158-9.742-5.142-13.802-8.777   c-1.616,1.506-3.636,3.238-5.481,4.432c-8.125,5.682-17.979,9.032-28.629,9.032c-3.664,0-7.3-0.427-10.852-1.193   c-2.187-0.511-4.373-1.136-6.447-1.901c-0.853,3.353-1.306,6.846-1.306,10.451c0,11.788,4.797,22.467,12.525,30.193   C234.371,117.857,245.05,122.629,256.838,122.629z"/>

<path d="M232.725,65.31c9.118,0,17.523-2.841,24.425-7.64l0.229-0.199c2.415-1.676,4.629-3.636,6.619-5.766l0.027-0.029   l0.057-0.057l0.027-0.028l0.029-0.056l0.055-0.06l0.089-0.057l0.084-0.113l0.341-0.397l0.084-0.084l0.028-0.06l0.056-0.056   l0.088-0.085l0.084-0.113h0.028l0.058-0.086l0.172-0.198l0.168-0.197l0.06-0.06l0.112-0.142l0.084-0.112l0.027-0.029l0.061-0.057   l0.085-0.114l0.084-0.111l0.084-0.086l0.088-0.113l0.058-0.086l0.026-0.029l0.058-0.084l0.084-0.113l0.06-0.057l0.028-0.059   l0.084-0.084l0.084-0.113v-0.028l0.088-0.086l0.057-0.085l0.084-0.113l0.084-0.113l0.088-0.113l0.057-0.059l0.027-0.027   l0.057-0.113l0.084-0.112c0.74-0.993,1.449-2.018,2.074-3.125l0.145-0.198v-0.029l0.057-0.057l0.028-0.084l0.026-0.058l0.058-0.085   l0.028-0.059l0.027-0.057l0.06-0.086l0.028-0.057l0.057-0.057l0.027-0.086l0.027-0.056l0.084-0.144l0.028-0.026v-0.03l0.06-0.085   l0.028-0.058l0.028-0.084l0.056-0.059l0.028-0.057l0.027-0.084l0.057-0.059l0.027-0.084l0.028-0.029v-0.028l0.06-0.084l0.029-0.058   l0.026-0.057l0.058-0.086l0.144-0.285l0.028-0.056l0.056-0.144l0.057-0.057l0.2-0.426v-0.027l0.027-0.059l0.057-0.057l0.028-0.084   l0.056-0.114l0.145-0.312l0.027-0.029V40.85l0.057-0.143l0.057-0.084l0.027-0.059l0.285-0.652   c-9.375-3.494-19.742-3.578-29.144-0.283c-5.822,1.959-11.645,5.766-15.989,10.111c-3.694,3.697-6.733,8.043-8.864,12.871   c1.818,0.711,3.72,1.25,5.65,1.705C226.39,64.969,229.513,65.31,232.725,65.31z"/>

<polygon points="228.805,171.597 252.407,171.597 229.942,149.982  "/>

<path d="M389.881,163.443v-14.059c-3.889,1.307-8.094,2.045-12.44,2.045c-4.771,0-9.314-0.852-13.52-2.415v15.084l12.157,11.7   L389.881,163.443z"/>

<path d="M346.427,169.266v44.481h93.246v-32.294l-39.99-17.441l-3.808,3.408l-0.057,0.059l-0.027,0.027l-0.029,0.027l-0.056,0.029   l-0.031,0.026l-0.028,0.06l-0.057,0.026l-0.027,0.028l-17.153,15.339c-1.338,1.307-3.496,1.335-4.857,0.026l-19.457-18.717   L346.427,169.266z"/>

<path d="M377.44,144.156c8.749,0,16.7-3.551,22.438-9.315c5.738-5.737,9.29-13.662,9.29-22.438c0-8.748-3.552-16.701-9.29-22.438   c-5.738-5.738-13.689-9.288-22.438-9.288c-8.689,0-16.56,3.466-22.297,9.117c-6.105,6.533-9.458,13.521-9.458,22.609   c0,8.776,3.552,16.701,9.289,22.438C360.709,140.607,368.666,144.156,377.44,144.156z"/>

<path d="M165.577,169.182l-7.556-4.828l-19.457,18.717c-1.361,1.309-3.492,1.279-4.829-0.026l-17.154-15.338l-0.056-0.029   l-0.028-0.026l-0.056-0.06l-0.032-0.026l-0.028-0.029l-0.028-0.027l-0.056-0.027l-0.028-0.059l-3.835-3.408l-39.991,17.441v32.292   h93.134V169.182z"/>

<polygon points="282.486,149.215 280.188,151.287 280.13,151.314 280.104,151.344 280.07,151.372 280.016,151.398 279.986,151.456    279.959,151.484 279.902,151.514 257.463,171.597 283.255,171.597  "/>

<path d="M454.557,220.734c-37.207,0-74.418,0-111.627,0H169.186c-37.236,0-74.475,0-111.711,0v25.563h397.082V220.734z"/>

<path d="M122.235,149.385v14.059l13.831,12.355l12.157-11.7v-15.084c-4.205,1.563-8.778,2.415-13.519,2.415   C130.328,151.43,126.152,150.691,122.235,149.385z"/>

<path d="M339.438,169.636l-50.048-21.813l0.937,27.153c0.057,1.903-1.478,3.521-3.38,3.579l-61.805,0.028   c-1.93,0-3.496-1.563-3.496-3.494l1.421-27.467l-50.53,22.014v44.11h166.901V169.636z"/>

<path d="M134.704,144.156c8.774,0,16.699-3.549,22.437-9.315c5.737-5.737,9.317-13.662,9.317-22.438   c0-9.088-3.38-16.076-9.486-22.609c-5.738-5.651-13.606-9.117-22.268-9.117c-8.777,0-16.701,3.55-22.439,9.288   c-5.766,5.737-9.318,13.69-9.318,22.438c0,8.776,3.552,16.701,9.318,22.438C118.002,140.605,125.927,144.156,134.704,144.156z"/>

<path d="M425.334,312.643c2.611,4.545,6.987,8.097,12.413,9.572c5.454,1.449,10.991,0.568,15.536-2.045   c3.58-2.074,6.532-5.227,8.35-9.145l22.58,6.048l1.79-6.731l-22.553-6.05c0.396-4.288-0.597-8.521-2.671-12.099   c-2.61-4.518-6.955-8.067-12.409-9.518l-0.172-0.056c-5.397-1.392-10.879-0.511-15.396,2.103c-3.548,2.045-6.53,5.226-8.319,9.117   l-67.488-18.064c1.138-4.885,1.905-9.885,2.331-14.998c0.14-1.93-1.278-3.605-3.212-3.748L156.152,257   c-1.902,0-3.492,1.563-3.492,3.493l0.056,0.483c0.397,5.057,1.194,9.998,2.299,14.799L87.559,293.84   c-1.818-3.891-4.773-7.046-8.353-9.117l-0.229-0.113c-4.485-2.53-9.939-3.381-15.308-1.934c-5.454,1.451-9.799,5-12.413,9.518   l-0.141,0.227c-1.962,3.551-2.927,7.67-2.527,11.872l-22.583,6.05l1.818,6.731l22.552-6.048c1.818,3.918,4.773,7.07,8.353,9.117   c4.516,2.64,10.082,3.521,15.508,2.072l0.112-0.027c5.397-1.479,9.714-5,12.329-9.518c2.074-3.578,3.067-7.781,2.667-12.07   l67.459-18.094c1.99,6.506,4.573,12.727,7.728,18.604l-60.5,34.938c-2.756-3.324-6.419-5.598-10.427-6.676   c-5.053-1.363-10.62-0.768-15.505,2.045c-4.917,2.84-8.209,7.385-9.574,12.412c-1.05,4.006-0.909,8.322,0.568,12.385   l-20.225,11.674l3.496,6.021l20.222-11.675c2.755,3.323,6.423,5.597,10.427,6.675c5.025,1.336,10.591,0.768,15.48-2.016   l0.252-0.144c4.773-2.841,8.013-7.327,9.346-12.325c1.054-3.977,0.938-8.295-0.568-12.355l60.5-34.938   c3.551,5.737,7.668,11.077,12.269,15.963l-49.421,49.422c-3.523-2.5-7.668-3.75-11.788-3.75c-5.226,0-10.452,2.019-14.484,5.994   c-3.976,4.006-5.994,9.229-5.994,14.485c0,4.119,1.249,8.267,3.748,11.787l-16.53,16.53l4.941,4.914l16.501-16.502   c3.524,2.498,7.672,3.75,11.817,3.721c5.226,0,10.483-1.988,14.459-5.965l0.256-0.284c3.832-3.948,5.766-9.091,5.766-14.201   c0-4.146-1.253-8.265-3.752-11.788l49.396-49.423l0.565,0.541c4.773,4.374,9.914,8.294,15.396,11.729l-34.909,60.5   c-4.061-1.506-8.378-1.619-12.354-0.567c-5.057,1.362-9.602,4.657-12.441,9.544l-0.116,0.197c-2.727,4.859-3.263,10.34-1.93,15.339   c1.053,3.977,3.352,7.668,6.675,10.426l-11.672,20.251l6.019,3.464l11.676-20.222c4.033,1.475,8.378,1.617,12.354,0.566   c4.973-1.336,9.401-4.545,12.272-9.26l0.341-0.598c2.67-4.828,3.207-10.282,1.874-15.225c-1.049-4.004-3.351-7.668-6.675-10.422   l34.937-60.502c5.878,3.154,12.101,5.739,18.604,7.727l-18.091,67.459c-4.289-0.396-8.493,0.596-12.073,2.67   c-4.516,2.613-8.068,6.96-9.542,12.414c-1.45,5.451-0.569,10.99,2.042,15.506c2.074,3.58,5.226,6.563,9.146,8.381l-6.05,22.553   l6.734,1.789l6.047-22.554c4.293,0.397,8.493-0.597,12.073-2.669c4.545-2.613,8.097-6.959,9.546-12.413v-0.028   c1.474-5.453,0.565-10.99-2.046-15.508c-2.074-3.578-5.198-6.533-9.146-8.352l18.092-67.457c6.447,1.505,13.122,2.384,19.969,2.611   v69.846c-4.261,0.738-8.069,2.783-10.992,5.709c-3.692,3.691-5.966,8.805-5.994,14.458c0,5.68,2.27,10.794,5.994,14.485   c2.924,2.926,6.732,4.969,10.992,5.709v23.348h6.958v-23.348c4.262-0.709,8.064-2.756,10.992-5.682   c3.691-3.691,5.993-8.833,5.993-14.484v-0.06c0-5.623-2.302-10.735-5.966-14.428l-0.229-0.199   c-2.867-2.812-6.588-4.771-10.764-5.481v-69.873c6.844-0.227,13.491-1.106,19.938-2.611l18.096,67.457   c-3.92,1.818-7.072,4.773-9.118,8.352c-2.642,4.545-3.522,10.082-2.073,15.536c1.478,5.454,4.998,9.8,9.543,12.413l0.228,0.114   c3.523,1.987,7.641,2.925,11.845,2.555l6.051,22.554l6.761-1.789l-6.052-22.553c3.893-1.818,7.043-4.773,9.117-8.352   c2.615-4.545,3.524-10.084,2.047-15.535v-0.03c-1.479-5.454-4.998-9.799-9.515-12.411c-3.58-2.047-7.813-3.039-12.101-2.643   l-18.063-67.459c6.476-1.988,12.694-4.573,18.604-7.727l34.904,60.502c-3.319,2.754-5.594,6.418-6.643,10.422   c-1.365,5.028-0.797,10.623,2.014,15.51c2.842,4.914,7.387,8.208,12.441,9.543c3.976,1.08,8.293,0.938,12.356-0.568l11.7,20.252   l6.022-3.494l-11.701-20.221c3.352-2.758,5.623-6.449,6.676-10.426c1.361-5.027,0.793-10.594-2.018-15.48l-0.146-0.254   c-2.84-4.801-7.328-8.011-12.297-9.346c-4.005-1.08-8.322-0.938-12.386,0.568l-34.905-60.5c5.483-3.436,10.652-7.356,15.393-11.73   l0.572-0.539l49.394,49.423c-2.472,3.493-3.721,7.642-3.721,11.761c0,5.254,1.99,10.48,5.967,14.484   c4.005,4.004,9.257,6.023,14.483,6.023c4.148,0,8.269-1.252,11.816-3.75l16.533,16.5l4.885-4.912l-16.478-16.502   c2.475-3.523,3.725-7.67,3.725-11.816c0-5.256-2.019-10.48-5.994-14.457l-0.257-0.285c-3.976-3.805-9.089-5.736-14.23-5.736   c-4.117,0-8.265,1.248-11.785,3.75l-49.396-49.424c4.573-4.885,8.692-10.252,12.241-15.963l60.527,34.938   c-1.505,4.06-1.645,8.378-0.563,12.354c1.333,5.055,4.629,9.6,9.514,12.44l0.2,0.085c4.854,2.754,10.367,3.295,15.337,1.959   c4.004-1.051,7.668-3.352,10.451-6.675l20.225,11.675l3.464-6.021l-20.222-11.674c1.506-4.062,1.646-8.378,0.569-12.356   c-1.365-5.054-4.661-9.599-9.546-12.439l-0.229-0.112c-4.826-2.728-10.339-3.269-15.309-1.933   c-3.978,1.052-7.668,3.353-10.423,6.675l-60.501-34.938c3.152-5.878,5.738-12.1,7.725-18.604l67.46,18.092   C422.267,304.889,423.26,309.064,425.334,312.643z M195.685,299.463c-0.452,1.107-1.818,1.988-3.151,1.988h-6.987   c-2.502,0-4.289-2.699-3.127-5.027c0.456-1.108,1.818-1.961,3.127-1.961h6.987C195.06,294.463,196.851,297.162,195.685,299.463z    M195.685,282.192c-0.452,1.106-1.818,1.96-3.151,1.96h-6.987c-2.502,0-4.289-2.671-3.127-4.999c0.456-1.106,1.818-1.96,3.127-1.96   h6.987C195.06,277.193,196.851,279.863,195.685,282.192z M223.579,299.463c-0.428,1.107-1.818,1.988-3.127,1.988h-6.987   c-2.527,0-4.289-2.699-3.124-5.027c0.429-1.108,1.818-1.961,3.124-1.961h6.987C222.982,294.463,224.745,297.162,223.579,299.463z    M223.579,282.192c-0.428,1.106-1.818,1.96-3.127,1.96h-6.987c-2.527,0-4.289-2.671-3.124-4.999c0.429-1.106,1.818-1.96,3.124-1.96   h6.987C222.982,277.193,224.745,279.863,223.579,282.192z M251.498,299.463c-0.425,1.107-1.815,1.988-3.124,1.988h-6.988   c-2.527,0-4.289-2.699-3.123-5.027c0.424-1.108,1.818-1.961,3.123-1.961h6.988C250.905,294.463,252.663,297.162,251.498,299.463z    M251.498,282.192c-0.425,1.106-1.815,1.96-3.124,1.96h-6.988c-2.527,0-4.289-2.671-3.123-4.999c0.424-1.106,1.818-1.96,3.123-1.96   h6.988C250.905,277.193,252.663,279.863,251.498,282.192z M279.419,299.463c-0.425,1.107-1.817,1.988-3.124,1.988h-6.986   c-2.526,0-4.289-2.699-3.123-5.027c0.424-1.108,1.816-1.961,3.123-1.961h6.986C278.822,294.463,280.584,297.162,279.419,299.463z    M279.419,282.192c-0.425,1.106-1.817,1.96-3.124,1.96h-6.986c-2.526,0-4.289-2.671-3.123-4.999c0.424-1.106,1.816-1.96,3.123-1.96   h6.986C278.822,277.193,280.584,279.863,279.419,282.192z M307.34,299.463c-0.452,1.107-1.816,1.988-3.123,1.988h-6.986   c-2.527,0-4.316-2.699-3.155-5.027c0.456-1.108,1.817-1.961,3.155-1.961h6.986C306.744,294.463,308.506,297.162,307.34,299.463z    M307.34,282.192c-0.452,1.106-1.816,1.96-3.123,1.96h-6.986c-2.527,0-4.316-2.671-3.155-4.999c0.456-1.106,1.817-1.96,3.155-1.96   h6.986C306.744,277.193,308.506,279.863,307.34,282.192z M329.58,299.463c-0.453,1.107-1.818,1.988-3.123,1.988h-1.306   c-2.53,0-4.32-2.699-3.155-5.027c0.456-1.108,1.818-1.961,3.155-1.961h1.306C328.983,294.463,330.745,297.162,329.58,299.463z    M329.58,282.192c-0.453,1.106-1.818,1.96-3.123,1.96h-1.306c-2.53,0-4.32-2.671-3.155-4.999c0.456-1.106,1.818-1.96,3.155-1.96   h1.306C328.983,277.193,330.745,279.863,329.58,282.192z"/>

</g>

<g id="Layer_1_1_"/>

</svg>