<svg fill="#848c96" width="80px" height="80px" viewBox="0 0 512 512" version="1.1" xml:space="preserve" xmlns="http://www.w3.org/2000/svg" xmlns:xlink="http://www.w3.org/1999/xlink">

<g id="_x31_83_x2C__launch_x2C__Publish_x2C__App_x2C__shuttle_x2C__space_x2C_">

<g>

<path d="M291.607,290.705v-6.881v-97.51v-67.022l-31.465-57.606l-31.088,57.606    v67.022v97.51v6.881H291.607z M307.579,207.986l-9.793-12.605v85.279h9.793V207.986z M222.877,280.66v-85.255l-9.769,12.581    v72.674H222.877z M245.101,207.686c-1.707,0-3.088-1.382-3.088-3.09c0-1.707,1.381-3.088,3.088-3.088h30.485    c1.708,0,3.089,1.381,3.089,3.088c0,1.708-1.381,3.09-3.089,3.09H245.101z M245.101,221.772c-1.707,0-3.088-1.406-3.088-3.089    c0-1.707,1.381-3.088,3.088-3.088h30.485c1.708,0,3.089,1.381,3.089,3.088c0,1.683-1.381,3.089-3.089,3.089H245.101z     M292.136,385.05c0,1.707-1.382,3.088-3.089,3.088c-1.709,0-3.09-1.381-3.09-3.088v-35.357c0-1.708,1.381-3.089,3.09-3.089    c1.707,0,3.089,1.381,3.089,3.089V385.05z M263.433,390.123c0,1.707-1.381,3.088-3.09,3.088c-1.707,0-3.088-1.381-3.088-3.088    v-50.426c0-1.707,1.381-3.088,3.088-3.088c1.709,0,3.09,1.381,3.09,3.088V390.123z M249.069,379.977    c0,1.708-1.381,3.089-3.088,3.089s-3.09-1.381-3.09-3.089v-50.424c0-1.708,1.383-3.089,3.09-3.089s3.088,1.381,3.088,3.089    V379.977z M234.705,359.711c0,1.709-1.381,3.09-3.064,3.09c-1.708,0-3.088-1.381-3.088-3.09v-50.424    c0-1.707,1.381-3.088,3.088-3.088c1.683,0,3.064,1.381,3.064,3.088V359.711z M257.255,320.236c0-1.708,1.381-3.089,3.088-3.089    c1.709,0,3.09,1.381,3.09,3.089v11.902c0,1.708-1.381,3.09-3.09,3.09c-1.707,0-3.088-1.382-3.088-3.09V320.236z M285.957,320.236    c0-1.708,1.381-3.089,3.09-3.089c1.707,0,3.089,1.381,3.089,3.089v18.809c0,1.682-1.382,3.088-3.089,3.088    c-1.709,0-3.09-1.406-3.09-3.088V320.236z M445.745,293.039h-23.907c-2.286,0-4.369,0.93-5.877,2.462    c-1.507,1.507-2.436,3.591-2.436,5.851c0,2.311,0.929,4.395,2.436,5.901c1.481,1.481,3.541,2.411,5.777,2.437h0.024h0.075h0.075    h52.459c3.188,0,6.127,1.33,8.21,3.415c2.111,2.109,3.417,5.022,3.417,8.236s-1.306,6.128-3.417,8.237    c-2.109,2.108-5.021,3.414-8.21,3.414h-65.668c-1.708,0-3.089-1.381-3.089-3.088c0-1.708,1.381-3.09,3.089-3.09h65.668    c1.48,0,2.861-0.627,3.841-1.606c1.006-0.979,1.634-2.36,1.634-3.867s-0.628-2.862-1.634-3.867    c-0.979-0.979-2.36-1.607-3.841-1.607h-52.459h-0.075h-0.075c-3.943-0.024-7.56-1.657-10.171-4.243    c-2.611-2.637-4.244-6.278-4.244-10.246c0-3.992,1.633-7.634,4.244-10.246c2.638-2.636,6.252-4.269,10.246-4.269h23.907h0.075    h0.073h0.026h0.05c1.456-0.05,2.764-0.653,3.716-1.582c1.006-1.005,1.607-2.386,1.607-3.892c0-1.508-0.628-2.863-1.607-3.868    c-1.004-0.979-2.359-1.606-3.865-1.606h-96.129c-1.683,0-3.064-1.382-3.064-3.089c0-1.708,1.382-3.089,3.064-3.089h96.129    c3.213,0,6.126,1.331,8.234,3.415c2.111,2.109,3.417,5.048,3.417,8.237c0,3.188-1.306,6.102-3.417,8.211    c-2.082,2.084-4.946,3.391-8.059,3.439h-0.026h-0.05h-0.1H445.745z M125.117,315.866H101.21c-3.967,0-7.608-1.632-10.22-4.243    c-2.637-2.637-4.269-6.278-4.269-10.246c0-3.992,1.632-7.634,4.245-10.246l0.2-0.176c2.586-2.511,6.103-4.067,9.969-4.093h0.075    h0.102h52.432c1.507,0,2.864-0.628,3.868-1.606c0.979-0.98,1.607-2.361,1.607-3.867c0-1.508-0.628-2.889-1.607-3.868    c-1.004-0.979-2.36-1.606-3.868-1.606H88.078c-1.708,0-3.088-1.382-3.088-3.089c0-1.708,1.381-3.089,3.088-3.089h65.666    c3.19,0,6.127,1.331,8.212,3.415c2.109,2.135,3.441,5.048,3.441,8.237c0,3.214-1.332,6.127-3.441,8.236    c-2.085,2.109-5.022,3.414-8.212,3.414h-52.432h-0.102h-0.075h-0.025c-2.185,0.025-4.169,0.904-5.625,2.311l-0.149,0.151    c-1.507,1.507-2.437,3.591-2.437,5.876c0,2.26,0.93,4.369,2.437,5.876c1.506,1.507,3.615,2.437,5.875,2.437h23.907h0.076h0.1    h0.051l0.024,0.025c3.115,0.024,5.977,1.33,8.037,3.414c2.134,2.109,3.439,5.022,3.439,8.212c0,3.214-1.306,6.128-3.415,8.237    c-2.109,2.108-5.022,3.414-8.236,3.414H29.09c-1.708,0-3.088-1.381-3.088-3.088c0-1.708,1.381-3.09,3.088-3.09h96.103    c1.507,0,2.888-0.602,3.867-1.606c1.004-0.979,1.607-2.36,1.607-3.867s-0.604-2.888-1.583-3.867    c-0.979-0.954-2.285-1.557-3.741-1.607h-0.051h-0.024h-0.075H125.117z M170.017,192.367h-19.16c-3.365,0-6.429-1.381-8.638-3.616    c-2.236-2.21-3.617-5.273-3.617-8.639s1.381-6.429,3.617-8.639c2.185-2.21,5.173-3.565,8.487-3.616l0,0h0.076h0.075h0.076h42.086    c1.03,0,1.984-0.427,2.662-1.104c0.704-0.703,1.105-1.632,1.105-2.687c0-1.029-0.402-1.984-1.079-2.662    c-0.704-0.703-1.659-1.105-2.688-1.105H140.31c-1.708,0-3.088-1.381-3.088-3.089c0-1.707,1.381-3.089,3.088-3.089h52.709    c2.713,0,5.199,1.105,7.007,2.914c1.833,1.833,2.938,4.318,2.938,7.031c0,2.736-1.104,5.223-2.913,7.031    c-1.808,1.808-4.318,2.938-7.031,2.938h-42.086h-0.076h-0.075l0,0c-1.632,0.025-3.139,0.703-4.218,1.758    c-1.105,1.13-1.785,2.637-1.785,4.319c0,1.657,0.704,3.189,1.809,4.294c1.079,1.08,2.611,1.783,4.269,1.783h19.16h0.1h0.076h0.051    h0.024c2.662,0.05,5.098,1.155,6.856,2.913c1.807,1.808,2.938,4.319,2.938,7.031c0,2.637-1.03,5.022-2.713,6.83l-0.2,0.201    c-1.807,1.808-4.294,2.938-7.031,2.938H92.973c-1.708,0-3.088-1.381-3.088-3.088c0-1.708,1.381-3.089,3.088-3.089h77.144    c1.03,0,1.958-0.427,2.662-1.105l0.125-0.125c0.604-0.678,0.981-1.582,0.981-2.562c0-1.03-0.428-1.983-1.081-2.662    c-0.677-0.678-1.607-1.079-2.586-1.104h-0.024h-0.025h-0.051H170.017z M100.306,439.016c-1.707,0-3.088-1.383-3.088-3.09    c0-1.708,1.381-3.089,3.088-3.089h185.702c1.707,0,3.088,1.381,3.088,3.089c0,1.707-1.381,3.09-3.088,3.09H100.306z     M209.066,450.314c-1.708,0-3.088-1.381-3.088-3.089c0-1.707,1.381-3.088,3.088-3.088h128.497c1.707,0,3.088,1.381,3.088,3.088    c0,1.708-1.381,3.089-3.088,3.089H209.066z M350.722,450.314c-1.708,0-3.089-1.381-3.089-3.089c0-1.707,1.381-3.088,3.089-3.088    h16.071c1.707,0,3.088,1.381,3.088,3.088c0,1.708-1.381,3.089-3.088,3.089H350.722z M93,449.963c-1.708,0-3.09-1.381-3.09-3.088    c0-1.708,1.383-3.089,3.09-3.089h60.895c1.683,0,3.088,1.381,3.088,3.089c0,1.707-1.405,3.088-3.088,3.088H93z M222.576,349.768    c1.532,0.729,3.365,0.051,4.094-1.482c0.728-1.531,0.049-3.364-1.483-4.067c-2.636-1.256-5.473-2.235-8.386-2.888    c-2.889-0.628-5.877-0.979-8.865-0.979c-1.783,0-3.616,0.125-5.448,0.376c-1.308,0.177-2.613,0.428-3.918,0.729    c-1.281-0.828-2.662-1.506-4.119-2.009l-0.2-0.075c-1.858-0.603-3.818-0.93-5.852-0.93c-5.173,0-9.844,2.085-13.208,5.475    c-3.39,3.365-5.475,8.062-5.475,13.209c0,1.457,0.176,2.888,0.478,4.27c0.226,0.903,0.501,1.783,0.828,2.637    c-1.055,2.335-1.934,4.796-2.562,7.357c-0.451,1.857-0.777,3.767-0.953,5.701l-0.302-0.026c-1.332-0.125-2.611-0.175-3.792-0.175    c-2.311,0-4.621,0.201-6.88,0.577c-1.81,0.302-3.592,0.753-5.324,1.28c-1.055-0.477-2.134-0.904-3.239-1.18    c-1.557-0.428-3.19-0.653-4.847-0.653c-5.173,0-9.844,2.109-13.234,5.475c-3.364,3.39-5.475,8.062-5.475,13.209    c0,1.406,0.177,2.787,0.477,4.144c0.202,0.904,0.478,1.783,0.804,2.636c-0.853,2.16-1.556,4.42-2.058,6.756    c-0.553,2.737-0.854,5.523-0.854,8.388l0.026,0.853h-9.744c-1.683,0-3.088,1.381-3.088,3.09c0,1.707,1.405,3.089,3.088,3.089    h298.604c1.708,0,3.089-1.382,3.089-3.089c0-1.709-1.381-3.09-3.089-3.09h-12.028l0.024-0.853c0-2.864-0.3-5.65-0.853-8.388    c-0.502-2.336-1.205-4.596-2.061-6.756c0.326-0.853,0.604-1.731,0.804-2.636c0.302-1.356,0.478-2.737,0.478-4.144    c0-5.147-2.109-9.819-5.475-13.209c-3.391-3.365-8.06-5.475-13.232-5.475c-1.658,0-3.291,0.226-4.848,0.653    c-1.105,0.275-2.211,0.703-3.238,1.18c-1.734-0.527-3.517-0.979-5.351-1.28c-2.233-0.376-4.545-0.577-6.854-0.577    c-1.181,0-2.461,0.05-3.791,0.175l-0.303,0.026c-0.201-1.935-0.502-3.844-0.954-5.701c-0.628-2.562-1.506-5.022-2.562-7.357    c0.328-0.854,0.604-1.733,0.803-2.637c0.326-1.382,0.504-2.813,0.504-4.27c0-5.147-2.084-9.844-5.475-13.209    c-3.365-3.39-8.037-5.475-13.21-5.475c-2.034,0-4.017,0.327-5.851,0.93l-0.199,0.075c-1.457,0.503-2.84,1.181-4.119,2.009    c-1.307-0.301-2.612-0.552-3.918-0.729c-1.834-0.251-3.666-0.376-5.449-0.376c-2.988,0-5.977,0.352-8.864,0.979    c-2.913,0.652-5.751,1.632-8.388,2.888c-1.532,0.703-2.21,2.536-1.481,4.067c0.729,1.533,2.563,2.211,4.094,1.482    c2.234-1.055,4.646-1.884,7.105-2.436c2.386-0.527,4.897-0.805,7.534-0.805c1.607,0,3.164,0.102,4.646,0.302    c1.532,0.226,3.063,0.527,4.521,0.929c0.954,0.277,1.958,0.025,2.686-0.526c1.082-0.829,2.312-1.507,3.617-1.959l0.15-0.05    c1.206-0.402,2.536-0.604,3.917-0.604c3.466,0,6.581,1.406,8.865,3.666c2.26,2.261,3.665,5.399,3.665,8.84    c0,1.004-0.124,1.984-0.326,2.863c-0.225,0.953-0.577,1.883-0.979,2.736c-0.451,0.879-0.427,1.908,0,2.737    c1.181,2.311,2.109,4.797,2.737,7.358c0.604,2.512,0.93,5.147,0.954,7.834c0.251,38.597-190.624,58.234-174.527-7.834    c0.628-2.562,1.559-5.048,2.738-7.358c0.402-0.829,0.453-1.858,0-2.737c-0.402-0.854-0.753-1.783-0.979-2.736    c-0.2-0.879-0.326-1.859-0.326-2.863c0-3.44,1.407-6.579,3.666-8.84c2.287-2.26,5.399-3.666,8.865-3.666    c1.381,0,2.713,0.201,3.918,0.604l0.125,0.05c1.332,0.452,2.562,1.13,3.641,1.959c0.728,0.552,1.733,0.804,2.688,0.526    c1.457-0.401,2.962-0.703,4.519-0.929c1.483-0.2,3.039-0.302,4.646-0.302c2.638,0,5.148,0.277,7.533,0.805    C217.931,347.884,220.315,348.713,222.576,349.768z M234.529,306.199h40.079c-1.658,0.049-2.988,1.405-2.988,3.088v50.424    c0,1.709,1.381,3.09,3.063,3.09c1.707,0,3.088-1.381,3.088-3.09v-50.424c0-1.683-1.33-3.039-2.988-3.088h11.377v-9.316h-51.63    V306.199z" style="fill-rule:evenodd;clip-rule:evenodd;"/>

</g>

</g>

<g id="Layer_1"/>

</svg>