<svg fill="#858C95" width="80px" height="80px" viewBox="0 0 512 512" version="1.1" xml:space="preserve" xmlns="http://www.w3.org/2000/svg" xmlns:xlink="http://www.w3.org/1999/xlink">

<g id="A_-_172_x2C__marketing_x2C__Business_x2C__idea_x2C__pertinent_x2C__Gear">

<g>

<path d="M195.044,297.451c-2.045-3.013-3.859-6.163-5.417-9.406l-24.342,2.724c-1.606,0.175-3.1-0.835-3.527-2.391l-3.644-13.256    c-0.433-1.573,0.357-3.226,1.853-3.877l22.506-9.802c-0.234-3.644-0.235-7.287-0.002-10.887l-22.503-9.8    c-1.494-0.651-2.284-2.299-1.854-3.871l3.644-13.353c0.427-1.564,1.927-2.587,3.542-2.394l24.262,2.81    c1.587-3.248,3.398-6.354,5.484-9.408l-14.557-19.756c-0.962-1.305-0.826-3.118,0.322-4.265l2.535-2.536l-25.864-25.861    c-24.255,25.418-37.574,58.626-37.574,93.878c0,35.251,13.318,68.458,37.573,93.88l25.898-25.898l-2.58-2.604    c-1.139-1.149-1.269-2.958-0.306-4.259L195.044,297.451z"/>

<path d="M152.841,354.519c-25.493-26.661-39.494-61.515-39.494-98.518c0-37.004,14.001-71.857,39.495-98.517l-18.139-18.138    c-62.5,65.039-62.486,168.331,0.044,233.266L152.841,354.519z"/>

<path d="M354.531,359.144c-26.621,25.498-61.468,39.505-98.5,39.505c-37.023,0-71.888-14-98.549-39.489l4.639-4.639    c25.421,24.252,58.639,37.568,93.911,37.568c35.277,0,68.479-13.322,93.859-37.581l-25.879-25.854l-2.537,2.537    c-1.146,1.146-2.959,1.283-4.266,0.321l-19.757-14.562c-3.103,2.119-6.209,3.913-9.403,5.429l2.804,24.324    c0.187,1.617-0.843,3.126-2.415,3.546l-13.345,3.547c-0.28,0.075-0.564,0.111-0.844,0.111c-1.278,0-2.475-0.751-3.006-1.971    l-9.788-22.468c-3.596,0.279-7.23,0.279-10.825,0l-9.788,22.468c-0.646,1.484-2.275,2.275-3.844,1.861l-13.445-3.548    c-1.577-0.417-2.608-1.927-2.421-3.547l2.805-24.324c-3.187-1.514-6.291-3.307-9.396-5.429l-19.757,14.562    c-1.31,0.965-3.129,0.824-4.275-0.333l-2.512-2.534l2.309-2.31c1.281-1.281,1.281-3.357,0-4.639c-1.281-1.28-3.357-1.28-4.639,0    l-92.524,92.524c-1.281,1.28-1.281,3.357,0,4.639c0.64,0.639,1.479,0.959,2.317,0.96c0,0-0.001,0-0.002,0    c-0.839,0-1.679-0.32-2.319-0.96c-1.281-1.281-1.281-3.358,0-4.639l19.982-19.981H79.32v38.44h38.437v-33.795l21.631-21.632    c31.512,30.316,72.783,46.975,116.606,46.975c43.836,0,85.121-16.669,116.639-47.001L354.531,359.144z"/>

<path d="M93.14,97.785c-1.281-1.281-1.281-3.358,0-4.638c0.641-0.642,1.481-0.961,2.321-0.961    c-0.839,0.001-1.677,0.32-2.317,0.961c-1.281,1.28-1.281,3.357,0,4.638l92.524,92.52c0.64,0.64,1.479,0.96,2.319,0.96    c0.832,0,1.664-0.317,2.302-0.946l-2.847,2.846l14.286,19.39c0.848,1.15,0.853,2.718,0.012,3.875    c-2.904,3.992-5.266,8.047-7.222,12.396c-0.586,1.303-1.952,2.08-3.369,1.913l-23.806-2.758l-2.155,7.897l22.046,9.601    c1.3,0.566,2.089,1.902,1.956,3.313c-0.444,4.741-0.444,9.595,0.001,14.426c0.129,1.409-0.659,2.743-1.957,3.31l-22.041,9.6    l2.147,7.813l23.913-2.676c1.43-0.155,2.792,0.626,3.368,1.941c1.896,4.318,4.29,8.479,7.118,12.368    c0.842,1.157,0.836,2.729-0.017,3.88l-14.286,19.307l5.736,5.791l19.378-14.282c1.151-0.85,2.719-0.853,3.875-0.012    c4.091,2.975,8.126,5.3,12.336,7.108c1.332,0.571,2.13,1.949,1.964,3.389l-2.754,23.879l7.978,2.105l9.615-22.068    c0.575-1.321,1.947-2.111,3.376-1.949c4.679,0.53,9.521,0.53,14.2,0c1.437-0.161,2.8,0.628,3.375,1.949l9.613,22.063l7.88-2.096    l-2.753-23.884c-0.166-1.439,0.633-2.817,1.965-3.389c4.223-1.813,8.26-4.14,12.344-7.108c1.156-0.842,2.725-0.837,3.875,0.012    l19.389,14.29l5.804-5.803l-14.366-19.294c-0.868-1.166-0.865-2.764,0.006-3.926c2.661-3.551,5.017-7.6,7.202-12.378    c0.589-1.288,1.938-2.053,3.347-1.895l23.902,2.674l2.086-7.805l-22.06-9.606c-1.319-0.575-2.11-1.942-1.95-3.373    c0.535-4.789,0.535-9.6,0-14.298c-0.162-1.432,0.629-2.803,1.95-3.378l22.063-9.609l-2.093-7.887l-23.888,2.757    c-1.424,0.164-2.783-0.612-3.369-1.918c-2.066-4.612-4.418-8.654-7.191-12.354c-0.869-1.161-0.874-2.754-0.01-3.92l14.365-19.376    l-2.68-2.655c-0.086-0.071-0.178-0.132-0.259-0.212c-0.073-0.072-0.127-0.157-0.192-0.234l-2.656-2.632l-19.4,14.301    c-1.15,0.848-2.719,0.853-3.874,0.013c-4.101-2.981-8.138-5.306-12.343-7.107c-1.333-0.571-2.133-1.949-1.967-3.391l2.756-23.904    l-7.89-2.153l-9.606,22.046c-0.566,1.299-1.902,2.087-3.313,1.956c-4.721-0.444-9.605-0.444-14.325,0    c-1.41,0.132-2.748-0.656-3.313-1.956l-9.607-22.051l-7.988,2.165l2.756,23.898c0.166,1.441-0.634,2.82-1.967,3.391    c-4.191,1.795-8.226,4.12-12.334,7.107c-1.155,0.841-2.723,0.836-3.875-0.013l-19.389-14.292l-2.843,2.841    c1.265-1.282,1.261-3.345-0.015-4.621l-2.32-2.321l2.534-2.534c1.146-1.146,2.96-1.282,4.265-0.32l19.757,14.563    c3.114-2.127,6.218-3.92,9.396-5.429l-2.805-24.323c-0.186-1.612,0.834-3.117,2.4-3.542l13.445-3.644    c1.566-0.423,3.214,0.364,3.864,1.856l9.804,22.504c3.584-0.232,7.208-0.232,10.792,0l9.806-22.504    c0.651-1.493,2.3-2.282,3.87-1.854l13.346,3.643c1.563,0.427,2.579,1.93,2.394,3.54l-2.804,24.322    c3.186,1.512,6.292,3.306,9.403,5.43l19.757-14.563c1.301-0.959,3.105-0.828,4.254,0.309l2.561,2.536l25.866-25.84    c-25.384-24.261-58.583-37.583-93.858-37.583c-35.271,0-68.487,13.316-93.91,37.569l-4.639-4.638    c26.661-25.49,61.526-39.491,98.548-39.491c37.03,0,71.877,14.006,98.5,39.506l18.146-18.129    c-31.521-30.314-72.826-46.977-116.684-46.977c-43.844,0-85.134,16.651-116.651,46.951l-21.586-21.584V79.325H79.32v38.441h33.803    L93.14,97.785z M230.951,230.94c6.708-6.708,15.618-10.407,25.08-10.407c9.467,0,18.355,3.702,25.028,10.424    c6.683,6.636,10.382,15.501,10.4,24.944c0.017,9.487-3.679,18.419-10.409,25.151c-6.673,6.67-15.558,10.344-25.02,10.344    c-9.458,0-18.364-3.671-25.08-10.335c-6.742-6.739-10.441-15.673-10.424-25.16C220.545,246.459,224.247,237.594,230.951,230.94z"/>

<path d="M256.031,284.837c7.711,0,14.948-2.992,20.383-8.423c5.485-5.489,8.5-12.77,8.486-20.501    c-0.015-7.686-3.025-14.902-8.479-20.318c-5.448-5.489-12.685-8.502-20.39-8.502c-7.71,0-14.973,3.016-20.45,8.494    c-5.466,5.425-8.479,12.641-8.494,20.326c-0.014,7.731,3.002,15.012,8.493,20.501C241.05,281.843,248.316,284.837,256.031,284.837    z"/>

<path d="M394.229,113.204l20.079-20.059c0.642-0.64,1.482-0.959,2.322-0.959c-0.839,0.001-1.679,0.32-2.319,0.959l-92.615,92.52    c-1.28,1.28-1.282,3.357-0.001,4.638c0.641,0.642,1.479,0.962,2.319,0.962s1.678-0.32,2.318-0.959l2.354-2.351l2.579,2.555    c1.159,1.148,1.298,2.974,0.327,4.284l-14.632,19.734c2.024,2.922,3.832,6.034,5.472,9.422l24.356-2.811    c1.616-0.185,3.129,0.842,3.546,2.417l3.543,13.353c0.417,1.566-0.373,3.202-1.859,3.849l-22.466,9.784    c0.282,3.61,0.28,7.265-0.002,10.919l22.468,9.785c1.488,0.648,2.278,2.286,1.859,3.854l-3.545,13.257    c-0.419,1.566-1.918,2.592-3.532,2.412l-24.378-2.727c-1.693,3.464-3.498,6.577-5.461,9.425l14.626,19.644    c0.973,1.307,0.84,3.127-0.312,4.278l-2.623,2.624l-2.32-2.317c-1.281-1.28-3.358-1.278-4.638,0.003    c-1.281,1.281-1.279,3.357,0.001,4.638l92.615,92.524c0.641,0.64,1.479,0.958,2.316,0.959c0,0,0,0-0.002,0    c-0.839,0-1.677-0.319-2.317-0.959l-20.079-20.06v33.879h38.445v-38.44h-33.727l-21.676-21.654    c62.494-64.927,62.509-168.176,0.045-233.211l21.629-21.607h33.729V79.325h-38.445V113.204z M359.169,354.499l-4.642-4.636    c49.977-52.438,49.976-135.292-0.001-187.723l4.641-4.636C411.697,212.493,411.697,299.504,359.169,354.499z"/>

<path d="M447.625,67.749c0.841,0,1.68-0.32,2.32-0.962l8.397-8.402c1.28-1.281,1.28-3.358-0.001-4.639    c-1.282-1.28-3.358-1.279-4.639,0.002l-8.397,8.402c-1.28,1.281-1.28,3.358,0.001,4.639    C445.947,67.429,446.787,67.749,447.625,67.749z"/>

<path d="M456.873,86.889c0.393,1.464,1.718,2.43,3.166,2.43c0.28,0,0.566-0.037,0.852-0.113l11.486-3.084    c1.749-0.469,2.787-2.269,2.316-4.019c-0.469-1.748-2.265-2.786-4.018-2.317l-11.486,3.084    C457.44,83.34,456.402,85.139,456.873,86.889z"/>

<path d="M471.527,117.418c1.448,0,2.774-0.966,3.167-2.431c0.469-1.75-0.569-3.549-2.319-4.018l-11.485-3.079    c-1.751-0.466-3.549,0.569-4.018,2.319c-0.469,1.75,0.569,3.548,2.319,4.018l11.485,3.079    C470.961,117.382,471.247,117.418,471.527,117.418z"/>

<path d="M458.33,138.695l-8.397-8.312c-1.286-1.274-3.363-1.264-4.638,0.025c-1.275,1.287-1.264,3.364,0.023,4.638l8.397,8.312    c0.639,0.633,1.474,0.949,2.308,0.949c0.844,0,1.689-0.325,2.33-0.973C459.629,142.046,459.617,139.969,458.33,138.695z"/>

<path d="M432.21,155.759l-3.078-11.39c-0.472-1.749-2.271-2.784-4.022-2.311c-1.748,0.472-2.783,2.273-2.311,4.022l3.078,11.39    c0.396,1.462,1.719,2.425,3.165,2.425c0.282,0,0.571-0.037,0.857-0.114C431.648,159.309,432.683,157.508,432.21,155.759z"/>

<path d="M354.533,86.122l11.485,3.084c0.284,0.076,0.571,0.113,0.853,0.113c1.447,0,2.772-0.966,3.166-2.43    c0.469-1.75-0.567-3.549-2.317-4.019l-11.485-3.084c-1.753-0.472-3.549,0.568-4.019,2.317    C351.747,83.854,352.784,85.653,354.533,86.122z"/>

<path d="M376.951,66.774c0.641,0.649,1.486,0.975,2.332,0.975c0.833,0,1.667-0.316,2.307-0.947    c1.288-1.274,1.299-3.35,0.026-4.639l-8.307-8.402c-1.274-1.289-3.35-1.3-4.638-0.027c-1.289,1.273-1.301,3.35-0.027,4.639    L376.951,66.774z"/>

<path d="M397.776,52.808c0.394,1.465,1.719,2.432,3.167,2.432c0.28,0,0.566-0.037,0.851-0.113    c1.749-0.469,2.788-2.268,2.319-4.018l-3.08-11.485c-0.469-1.75-2.266-2.788-4.018-2.319c-1.75,0.47-2.787,2.268-2.318,4.018    L397.776,52.808z"/>

<path d="M425.116,55.126c0.284,0.076,0.569,0.113,0.851,0.113c1.448,0,2.773-0.967,3.167-2.432l3.078-11.485    c0.469-1.75-0.569-3.549-2.319-4.018c-1.748-0.467-3.547,0.569-4.018,2.319l-3.078,11.485    C422.328,52.859,423.366,54.658,425.116,55.126z"/>

<path d="M449.945,445.219c-1.28-1.282-3.357-1.282-4.638-0.002c-1.282,1.28-1.282,3.356-0.002,4.638l8.397,8.402    c0.641,0.642,1.479,0.962,2.32,0.962c0.839,0,1.678-0.32,2.317-0.96c1.282-1.28,1.282-3.356,0.002-4.638L449.945,445.219z"/>

<path d="M429.134,459.198c-0.471-1.75-2.265-2.787-4.018-2.319c-1.75,0.47-2.788,2.268-2.319,4.018l3.078,11.481    c0.395,1.465,1.719,2.432,3.167,2.432c0.28,0,0.566-0.037,0.851-0.113c1.75-0.469,2.788-2.268,2.319-4.017L429.134,459.198z"/>

<path d="M401.794,456.879c-1.751-0.468-3.547,0.569-4.018,2.319l-3.079,11.481c-0.469,1.748,0.568,3.548,2.318,4.017    c0.285,0.076,0.57,0.113,0.852,0.113c1.447,0,2.773-0.967,3.166-2.432l3.08-11.481    C404.582,459.147,403.543,457.349,401.794,456.879z"/>

<path d="M376.951,445.23l-8.307,8.402c-1.273,1.289-1.262,3.365,0.027,4.639c0.639,0.632,1.473,0.947,2.306,0.947    c0.846,0,1.691-0.324,2.332-0.974l8.307-8.402c1.272-1.289,1.262-3.365-0.026-4.639    C380.301,443.932,378.225,443.941,376.951,445.23z"/>

<path d="M370.037,425.027c-0.469-1.75-2.27-2.789-4.018-2.319l-11.484,3.079c-1.75,0.47-2.788,2.268-2.319,4.018    c0.394,1.465,1.719,2.432,3.166,2.432c0.281,0,0.567-0.037,0.851-0.112l11.486-3.08    C369.468,428.575,370.506,426.776,370.037,425.027z"/>

<path d="M429.899,352.22c-1.749-0.472-3.549,0.562-4.022,2.31l-3.078,11.391c-0.473,1.749,0.563,3.55,2.311,4.022    c0.287,0.077,0.575,0.114,0.857,0.114c1.446,0,2.77-0.963,3.165-2.425l3.078-11.391    C432.683,354.493,431.648,352.692,429.899,352.22z"/>

<path d="M453.703,368.566l-8.397,8.402c-1.28,1.281-1.28,3.357,0.002,4.638c0.64,0.641,1.479,0.96,2.317,0.96    c0.841,0,1.68-0.321,2.32-0.962l8.397-8.402c1.28-1.281,1.28-3.357-0.002-4.638C457.061,367.284,454.983,367.285,453.703,368.566z    "/>

<path d="M470.677,394.699l-11.485,3.08c-1.75,0.469-2.788,2.268-2.319,4.017c0.394,1.466,1.718,2.432,3.167,2.432    c0.28,0,0.566-0.036,0.851-0.112l11.485-3.079c1.75-0.47,2.788-2.269,2.319-4.018    C474.225,395.269,472.428,394.232,470.677,394.699z"/>

<path d="M472.375,425.787l-11.485-3.079c-1.751-0.468-3.548,0.569-4.018,2.319c-0.469,1.749,0.569,3.548,2.319,4.017l11.485,3.08    c0.284,0.075,0.57,0.112,0.851,0.112c1.448,0,2.774-0.967,3.167-2.432C475.163,428.055,474.125,426.257,472.375,425.787z"/>

<path d="M62.148,445.217l-8.407,8.402c-1.281,1.28-1.281,3.357-0.001,4.639c0.641,0.641,1.48,0.961,2.32,0.961    c0.839,0,1.678-0.32,2.318-0.96l8.407-8.402c1.281-1.28,1.282-3.357,0.001-4.639C65.506,443.937,63.429,443.938,62.148,445.217z"/>

<path d="M55.12,425.026c-0.469-1.75-2.268-2.788-4.018-2.318l-11.477,3.079c-1.749,0.47-2.787,2.269-2.317,4.019    c0.393,1.465,1.718,2.431,3.166,2.431c0.281,0,0.567-0.037,0.853-0.112l11.477-3.08C54.551,428.575,55.589,426.775,55.12,425.026z    "/>

<path d="M37.307,397.018c-0.47,1.75,0.568,3.549,2.317,4.019l11.477,3.079c0.285,0.076,0.571,0.112,0.852,0.112    c1.448,0,2.773-0.966,3.166-2.431c0.469-1.749-0.568-3.549-2.317-4.018l-11.477-3.08C39.572,394.232,37.776,395.27,37.307,397.018    z"/>

<path d="M58.378,368.564c-1.28-1.281-3.357-1.28-4.638,0.002c-1.28,1.28-1.28,3.356,0.001,4.638l8.407,8.402    c0.64,0.641,1.479,0.96,2.318,0.96c0.84,0,1.679-0.32,2.32-0.962c1.28-1.281,1.28-3.356-0.001-4.638L58.378,368.564z"/>

<path d="M79.783,356.244l3.087,11.391c0.396,1.46,1.719,2.422,3.164,2.422c0.284,0,0.573-0.037,0.86-0.115    c1.748-0.473,2.781-2.275,2.308-4.023l-3.087-11.391c-0.474-1.747-2.272-2.783-4.023-2.308    C80.343,352.693,79.31,354.495,79.783,356.244z"/>

<path d="M157.473,425.789l-11.394-3.079c-1.746-0.469-3.549,0.562-4.022,2.311c-0.473,1.749,0.562,3.549,2.311,4.022l11.394,3.079    c0.287,0.077,0.574,0.114,0.858,0.114c1.445,0,2.769-0.963,3.164-2.425C160.256,428.063,159.222,426.263,157.473,425.789z"/>

<path d="M135.036,445.218c-1.28-1.281-3.357-1.28-4.639-0.001c-1.281,1.281-1.281,3.357-0.001,4.639l8.399,8.402    c0.641,0.641,1.48,0.961,2.32,0.961c0.839,0,1.678-0.32,2.318-0.96c1.281-1.281,1.282-3.357,0.001-4.639L135.036,445.218z"/>

<path d="M114.224,459.198c-0.469-1.75-2.266-2.788-4.018-2.319c-1.75,0.47-2.788,2.269-2.318,4.018l3.079,11.481    c0.393,1.465,1.718,2.432,3.166,2.432c0.281,0,0.567-0.037,0.852-0.113c1.75-0.469,2.788-2.269,2.318-4.017L114.224,459.198z"/>

<path d="M86.887,456.88c-1.748-0.471-3.549,0.566-4.019,2.315l-3.086,11.481c-0.471,1.749,0.566,3.549,2.315,4.019    c0.285,0.077,0.572,0.114,0.854,0.114c1.447,0,2.772-0.966,3.166-2.429l3.087-11.481C89.673,459.149,88.636,457.351,86.887,456.88    z"/>

<path d="M62.148,66.789c0.641,0.64,1.479,0.96,2.318,0.96c0.84,0,1.679-0.32,2.32-0.962c1.28-1.281,1.28-3.357-0.001-4.638    l-8.407-8.403c-1.281-1.28-3.357-1.28-4.638,0.002c-1.28,1.281-1.28,3.357,0.001,4.638L62.148,66.789z"/>

<path d="M82.868,52.81c0.394,1.465,1.718,2.43,3.166,2.43c0.282,0,0.568-0.037,0.853-0.114c1.75-0.469,2.787-2.269,2.316-4.018    l-3.087-11.485c-0.471-1.749-2.27-2.791-4.019-2.316c-1.75,0.469-2.787,2.269-2.316,4.019L82.868,52.81z"/>

<path d="M110.207,55.126c0.285,0.076,0.57,0.113,0.851,0.113c1.448,0,2.773-0.967,3.166-2.432l3.079-11.485    c0.47-1.75-0.569-3.548-2.318-4.018c-1.753-0.471-3.548,0.569-4.017,2.319l-3.079,11.485    C107.419,52.859,108.457,54.657,110.207,55.126z"/>

<path d="M132.716,67.749c0.84,0,1.68-0.32,2.32-0.961l8.399-8.403c1.28-1.281,1.28-3.357-0.001-4.639    c-1.282-1.28-3.358-1.279-4.639,0.001l-8.399,8.403c-1.28,1.281-1.28,3.357,0,4.638C131.038,67.429,131.877,67.749,132.716,67.749    z"/>

<path d="M142.057,86.896c0.396,1.461,1.719,2.423,3.164,2.423c0.283,0,0.572-0.037,0.859-0.115l11.394-3.084    c1.749-0.473,2.782-2.274,2.309-4.023c-0.474-1.748-2.272-2.784-4.023-2.309l-11.394,3.084    C142.618,83.346,141.584,85.146,142.057,86.896z"/>

<path d="M82.091,159.78c0.288,0.079,0.576,0.115,0.86,0.115c1.444,0,2.768-0.962,3.164-2.422l3.087-11.391    c0.474-1.748-0.56-3.55-2.308-4.023c-1.753-0.478-3.55,0.559-4.023,2.307l-3.087,11.391    C79.31,157.505,80.343,159.307,82.091,159.78z"/>

<path d="M62.161,130.382l-8.407,8.312c-1.289,1.274-1.3,3.35-0.027,4.638c0.642,0.65,1.487,0.975,2.333,0.975    c0.833,0,1.667-0.316,2.306-0.948l8.407-8.311c1.289-1.273,1.3-3.35,0.026-4.638C65.526,129.121,63.45,129.109,62.161,130.382z"/>

<path d="M55.12,110.209c-0.469-1.75-2.268-2.788-4.018-2.318l-11.477,3.079c-1.75,0.47-2.788,2.268-2.318,4.018    c0.393,1.465,1.718,2.431,3.166,2.431c0.281,0,0.567-0.037,0.852-0.113l11.478-3.079C54.551,113.758,55.589,111.959,55.12,110.209    z"/>

<path d="M39.624,86.122l11.477,3.084c0.285,0.076,0.572,0.113,0.853,0.113c1.447,0,2.772-0.966,3.166-2.43    c0.47-1.749-0.567-3.548-2.317-4.019l-11.477-3.084c-1.751-0.469-3.548,0.568-4.019,2.317    C36.837,83.853,37.875,85.652,39.624,86.122z"/>

</g>

</g>

<g id="Layer_1"/>

</svg>